<?xml version="1.0" standalone="no"?>
<!DOCTYPE svg PUBLIC "-//W3C//DTD SVG 20010904//EN"
 "http://www.w3.org/TR/2001/REC-SVG-20010904/DTD/svg10.dtd">
<svg version="1.0" xmlns="http://www.w3.org/2000/svg"
 width="1014.000000pt" height="479.000000pt" viewBox="0 0 1014.000000 479.000000"
 preserveAspectRatio="xMidYMid meet">

<g transform="translate(0.000000,479.000000) scale(0.100000,-0.100000)"
fill="#000000" stroke="none">
<path d="M0 2395 l0 -2395 5070 0 5070 0 0 2395 0 2395 -5070 0 -5070 0 0
-2395z m4030 1806 c3 -2 -3 -1 -14 3 -10 3 -24 2 -31 -4 -8 -6 -18 -5 -31 5
-18 14 -18 14 10 15 26 0 27 2 15 18 -7 9 0 6 16 -8 17 -14 32 -27 35 -29z
m-1527 23 c3 -3 3 -13 0 -21 -5 -12 -7 -12 -14 -1 -15 23 -4 40 14 22z m272
-4 c3 -5 1 -10 -4 -10 -6 0 -12 -8 -12 -17 -1 -17 -2 -17 -6 0 -2 9 -14 17
-26 18 -20 1 -20 2 3 9 35 11 38 11 45 0z m189 4 c20 -8 9 -34 -14 -34 -25 0
-36 20 -19 31 17 11 14 10 33 3z m-75 -14 c6 8 13 11 17 7 12 -11 -13 -30 -30
-24 -9 4 -16 12 -16 19 0 9 3 9 10 -2 9 -13 11 -13 19 0z m292 1 c-8 -5 -20
-7 -28 -4 -21 8 -15 13 15 13 20 0 23 -3 13 -9z m244 -1 c-3 -5 -10 -10 -16
-10 -5 0 -9 5 -9 10 0 6 7 10 16 10 8 0 12 -4 9 -10z m470 0 c-6 -9 -228 -20
-255 -13 -17 4 -19 8 -8 15 15 10 269 8 263 -2z m255 6 c0 -11 -19 -15 -25 -6
-3 5 1 10 9 10 9 0 16 -2 16 -4z m80 -6 c0 -5 -7 -10 -15 -10 -8 0 -15 5 -15
10 0 6 7 10 15 10 8 0 15 -4 15 -10z m-1861 -37 c-13 -16 -39 -41 -59 -58 -33
-28 -34 -28 -11 -2 l24 27 -30 0 c-23 0 -30 -4 -29 -17 1 -18 -4 -23 -25 -23
-8 0 -8 4 0 14 6 8 10 20 9 27 -2 9 10 12 42 10 37 -2 50 2 69 23 32 34 38 33
10 -1z m3781 24 c0 -2 -10 -12 -22 -23 l-23 -19 19 23 c18 21 26 27 26 19z
m-2843 -13 c-3 -3 -12 -4 -19 -1 -8 3 -5 6 6 6 11 1 17 -2 13 -5z m1061 -4
c12 0 13 -3 5 -11 -8 -8 -17 -7 -35 6 -16 12 -18 16 -5 11 10 -3 26 -6 35 -6z
m-998 -10 c18 -12 2 -12 -25 0 -13 6 -15 9 -5 9 8 0 22 -4 30 -9z m2868 -8 c2
-7 -3 -12 -11 -12 -9 0 -25 -12 -36 -26 -12 -15 -21 -22 -21 -16 0 6 5 14 11
17 5 4 14 18 20 32 9 25 29 27 37 5z m-2818 -2 c0 -5 -7 -10 -15 -10 -8 0 -15
5 -15 10 0 6 7 10 15 10 8 0 15 -4 15 -10z m1032 -1 c10 0 20 -4 23 -10 4 -5
-1 -9 -10 -9 -9 0 -28 -7 -43 -16 l-27 -16 24 19 24 20 -29 12 c-22 9 -23 10
-4 5 14 -3 33 -6 42 -5z m-1952 -8 c0 -5 -7 -14 -15 -21 -10 -9 -15 -9 -15 -1
0 7 -23 12 -57 13 l-58 1 60 7 c33 4 66 7 73 8 6 1 12 -2 12 -7z m3828 2 c-16
-2 -40 -2 -55 0 -16 2 -3 4 27 4 30 0 43 -2 28 -4z m108 -20 c-2 -2 -18 0 -37
4 l-34 7 30 6 c25 5 52 -7 41 -17z m734 18 c0 -6 -5 -13 -11 -16 -6 -4 -9 -25
-7 -48 1 -22 -2 -42 -7 -44 -6 -2 -10 22 -10 57 0 50 3 60 18 60 9 0 17 -4 17
-9z m78 2 c-10 -2 -28 -2 -40 0 -13 2 -5 4 17 4 22 1 32 -1 23 -4z m112 0 c0
-5 21 -16 46 -27 25 -10 43 -20 40 -23 -2 -3 -15 1 -28 8 -12 7 -36 15 -52 18
-31 7 -48 31 -22 31 9 0 16 -3 16 -7z m-1830 -44 c0 -5 -7 -9 -15 -9 -15 0
-20 12 -9 23 8 8 24 -1 24 -14z m533 15 c11 -11 -3 -24 -18 -18 -8 4 -12 10
-9 15 6 11 18 12 27 3z m-1015 -13 c11 -7 11 -9 -1 -14 -16 -6 -27 0 -27 15 0
10 11 10 28 -1z m263 1 c-17 -6 -13 -20 7 -25 9 -2 0 -2 -20 0 -34 4 -37 2
-41 -24 -4 -27 -4 -27 -6 5 -1 23 -6 32 -18 33 -35 1 20 17 56 16 19 -1 29 -3
22 -5z m142 1 c-7 -2 -19 -2 -25 0 -7 3 -2 5 12 5 14 0 19 -2 13 -5z m-3421
-33 c19 0 38 4 44 10 6 6 21 6 39 1 17 -5 22 -10 13 -10 -10 -1 -18 -5 -18
-10 0 -5 -29 -6 -65 -3 -45 3 -65 1 -65 -7 0 -6 -11 -11 -25 -11 -19 0 -23 4
-18 18 9 25 24 32 44 21 10 -5 33 -9 51 -9z m892 5 c3 -9 0 -15 -9 -15 -8 0
-15 7 -15 15 0 8 4 15 9 15 5 0 11 -7 15 -15z m3066 6 c0 -12 -39 -21 -45 -11
-3 5 5 11 17 13 13 2 24 5 26 6 1 0 2 -3 2 -8z m284 1 c78 -3 47 -13 -50 -16
-94 -4 -138 3 -94 15 14 3 41 5 60 4 19 -1 57 -2 84 -3z m1226 -8 l25 -15 -25
7 c-14 3 -29 10 -34 15 -16 14 6 10 34 -7z m-5642 -15 c12 -19 12 -19 -9 -8
-19 10 -25 9 -39 -9 -10 -12 -22 -17 -29 -12 -9 5 -2 13 21 28 42 26 41 26 56
1z m4672 11 c0 -5 -4 -10 -9 -10 -6 0 -13 5 -16 10 -3 6 1 10 9 10 9 0 16 -4
16 -10z m1070 -44 c-7 -7 -16 -7 -31 2 -11 7 -24 10 -29 7 -6 -4 -10 0 -10 8
0 12 7 13 41 5 29 -8 37 -14 29 -22z m-5875 9 c6 -2 -15 -4 -46 -4 -50 -1 -60
-5 -102 -42 -26 -23 -47 -47 -47 -53 -1 -6 -17 -19 -38 -28 l-37 -18 45 43
c25 23 58 59 73 78 27 35 30 35 85 32 31 -3 62 -6 67 -8z m5389 0 c-4 -8 -10
-12 -15 -9 -14 8 -10 24 6 24 9 0 12 -6 9 -15z m-5206 -15 c-15 -24 -24 -25
-31 -6 -4 10 2 16 16 19 12 2 23 5 25 6 1 0 -3 -8 -10 -19z m1117 10 c8 -13
-5 -13 -25 0 -13 8 -13 10 2 10 9 0 20 -4 23 -10z m2439 -16 c56 -31 61 -42 6
-14 -21 11 -46 20 -55 20 -8 0 -15 5 -15 10 0 16 14 12 64 -16z m-3234 13 c0
-2 -10 -12 -22 -23 l-23 -19 19 23 c18 21 26 27 26 19z m1564 -23 c3 -8 2 -14
-2 -15 -4 0 -17 -2 -29 -3 -22 -3 -26 9 -8 30 12 14 31 8 39 -12z m469 19
c-24 -9 -13 -20 32 -33 25 -7 45 -15 45 -17 0 -8 -71 -103 -76 -103 -3 0 0 9
6 19 5 11 10 29 10 40 0 12 7 21 15 21 26 0 16 21 -17 35 -22 9 -37 10 -45 4
-7 -7 -13 -6 -17 0 -7 10 31 42 49 40 5 0 4 -3 -2 -6z m3092 -3 c-3 -5 -13
-10 -21 -10 -8 0 -14 5 -14 10 0 6 9 10 21 10 11 0 17 -4 14 -10z m335 0 c20
-6 21 -8 5 -8 -11 0 -33 4 -50 8 -27 7 -27 8 -5 8 14 0 36 -4 50 -8z m-4810
-15 c0 -8 -7 -15 -15 -15 -13 0 -14 3 -3 15 16 18 18 18 18 0z m185 5 c3 -6
-1 -7 -9 -4 -18 7 -21 14 -7 14 6 0 13 -4 16 -10z m2015 -11 c0 -5 -4 -9 -10
-9 -5 0 -10 7 -10 16 0 8 5 12 10 9 6 -3 10 -10 10 -16z m255 0 c-33 -12 -66
-26 -73 -31 -9 -8 -16 -8 -24 0 -8 8 -3 13 18 17 16 3 43 12 59 20 17 8 41 14
55 14 15 0 0 -8 -35 -20z m645 17 c0 -2 -8 -10 -17 -17 -16 -13 -17 -12 -4 4
13 16 21 21 21 13z m-2472 -18 c-3 -7 -11 -13 -18 -13 -7 0 -15 6 -17 13 -3 7
4 12 17 12 13 0 20 -5 18 -12z m2952 2 c0 -5 -4 -10 -10 -10 -5 0 -10 5 -10
10 0 6 5 10 10 10 6 0 10 -4 10 -10z m1333 -4 c6 -15 1 -14 -63 7 -8 3 1 6 21
6 23 1 39 -4 42 -13z m772 4 c15 -7 9 -9 -25 -8 -25 1 -61 -3 -80 -7 -19 -4
-32 -5 -29 -1 6 6 76 24 99 24 8 0 24 -3 35 -8z m-5814 -24 l-22 -24 105 -58
c58 -32 106 -63 106 -68 0 -4 -6 -4 -12 2 -34 26 -131 70 -146 66 -13 -5 -14
-4 -3 4 11 8 10 12 -5 20 -11 5 -23 11 -29 12 -5 1 -16 5 -24 10 -12 7 -12 10
2 25 9 9 17 21 17 26 0 5 8 9 17 9 14 0 13 -4 -6 -24z m395 5 c20 3 31 -2 31
-16 0 -8 -9 -15 -19 -15 -10 0 -18 5 -18 10 0 6 -6 10 -13 10 -7 0 -22 7 -33
15 -17 14 -17 14 12 4 17 -5 35 -9 40 -8z m3969 -2 c-4 -5 -27 -8 -53 -7 -40
1 -42 2 -12 5 19 3 39 8 44 13 11 11 28 2 21 -11z m-1922 4 c-7 -2 -19 -2 -25
0 -7 3 -2 5 12 5 14 0 19 -2 13 -5z m1796 -9 c2 -2 -16 -4 -40 -4 -42 0 -46
-2 -59 -35 -17 -44 -38 -47 -32 -4 3 22 9 29 19 24 10 -3 13 -1 10 9 -3 8 -4
16 -1 19 5 5 96 -3 103 -9z m-1439 -4 c0 -5 -4 -10 -10 -10 -5 0 -10 5 -10 10
0 6 5 10 10 10 6 0 10 -4 10 -10z m2793 3 c-7 -2 -13 -11 -13 -19 0 -9 -4 -12
-10 -9 -19 12 -10 35 13 34 12 0 16 -3 10 -6z m65 -4 c-12 -7 -24 -7 -35 0
-15 9 -12 10 17 10 29 0 32 -1 18 -10z m132 1 c0 -5 -5 -10 -11 -10 -5 0 -7 5
-4 10 3 6 8 10 11 10 2 0 4 -4 4 -10z m135 0 c3 -5 -3 -10 -15 -10 -12 0 -18
5 -15 10 3 6 10 10 15 10 5 0 12 -4 15 -10z m85 -31 c0 -5 -12 -6 -27 -3 -42
10 -47 21 -8 16 19 -2 35 -8 35 -13z m-5530 -15 c0 -2 -9 0 -20 6 -11 6 -20
13 -20 16 0 2 9 0 20 -6 11 -6 20 -13 20 -16z m2680 23 c0 -2 -10 -12 -22 -23
l-23 -19 19 23 c18 21 26 27 26 19z m315 -7 c3 -5 -1 -10 -9 -10 -9 0 -16 5
-16 10 0 6 4 10 9 10 6 0 13 -4 16 -10z m141 -15 c-4 -35 -18 -36 -22 -2 -2
17 2 27 11 27 9 0 13 -9 11 -25z m174 15 c0 -5 -4 -10 -10 -10 -5 0 -10 5 -10
10 0 6 5 10 10 10 6 0 10 -4 10 -10z m133 -17 c5 -26 -8 -31 -17 -8 -3 8 -17
15 -31 15 -16 0 -25 -6 -25 -15 0 -8 -7 -15 -15 -15 -10 0 -14 7 -11 23 3 12
5 22 5 22 1 0 21 0 45 0 38 0 45 -3 49 -22z m1432 -32 c4 -10 2 -11 -7 -4 -7
6 -52 10 -100 9 -54 -1 -89 2 -91 8 -3 7 24 10 81 9 l85 -3 -19 22 c-17 20
-15 19 13 -2 17 -14 34 -31 38 -39z m335 39 c0 -15 -15 -19 -30 -9 -11 6 -12
9 -2 9 7 0 10 4 7 10 -3 6 1 7 9 4 9 -3 16 -10 16 -14z m189 16 c-11 -9 -69
-14 -69 -6 0 6 17 10 37 10 20 0 34 -2 32 -4z m-6782 -33 c-3 -3 -11 -2 -17 2
-9 6 -9 10 1 16 14 8 27 -7 16 -18z m4911 20 c-10 -2 -18 -11 -18 -19 0 -8 -9
-14 -22 -13 -13 0 -17 3 -10 6 6 2 12 11 12 19 0 9 10 14 28 13 16 -1 20 -3
10 -6z m55 -7 c6 -16 -1 -26 -18 -26 -6 0 -11 9 -11 20 0 23 21 27 29 6z
m-2803 -11 c0 -8 -7 -15 -15 -15 -26 0 -18 20 13 29 1 1 2 -6 2 -14z m2170 -5
c-10 -19 -30 -28 -30 -14 0 6 30 33 38 34 1 0 -2 -9 -8 -20z m-2900 -11 c0
-14 -16 -11 -29 5 -10 12 -8 13 8 9 12 -3 21 -9 21 -14z m3040 11 c13 -8 12
-10 -2 -10 -10 0 -18 -6 -18 -12 0 -9 -3 -8 -9 2 -17 25 1 38 29 20z m2006
-17 c-10 -10 -19 5 -10 18 6 11 8 11 12 0 2 -7 1 -15 -2 -18z m285 6 c-43 -8
-66 -4 -57 9 2 4 26 5 53 3 l48 -4 -44 -8z m-2489 -16 c-5 -25 -6 -25 -13 -8
-11 29 -10 35 5 35 9 0 12 -8 8 -27z m2063 17 c7 -12 -19 -12 -55 0 -22 7 -21
8 12 9 20 1 40 -3 43 -9z m558 -10 c3 -13 0 -20 -9 -20 -8 0 -14 2 -14 4 0 2
-3 11 -6 20 -4 10 -1 16 9 16 8 0 17 -9 20 -20z m-6149 -5 c-6 -16 -24 -21
-24 -7 0 11 11 22 21 22 5 0 6 -7 3 -15z m3906 -5 c13 -8 12 -10 -3 -10 -10 0
-16 -4 -13 -9 3 -5 -1 -15 -10 -22 -13 -11 -15 -9 -10 17 2 16 5 30 5 32 2 5
17 1 31 -8z m65 0 c-3 -5 -13 -10 -21 -10 -8 0 -12 5 -9 10 3 6 13 10 21 10 8
0 12 -4 9 -10z m2440 -10 c-5 -15 -1 -22 17 -29 23 -10 23 -10 -3 -10 -21 -1
-28 5 -31 24 -5 25 -1 35 14 35 5 0 6 -9 3 -20z m-8125 -7 c52 -3 102 -9 110
-14 21 -12 -14 -11 -119 1 -47 5 -87 7 -90 5 -2 -3 11 -22 30 -43 32 -35 32
-35 3 -9 -18 16 -34 25 -36 20 -3 -4 -4 -3 -2 3 4 17 -17 34 -40 34 -16 0 -18
2 -7 9 8 5 24 7 35 5 12 -3 64 -8 116 -11z m570 13 c0 -2 -7 -7 -16 -10 -8 -3
-12 -2 -9 4 6 10 25 14 25 6z m4110 -7 c0 -4 2 -13 5 -21 4 -11 -28 -13 -174
-11 -152 2 -182 0 -195 -13 -17 -17 -19 -14 -10 10 5 13 23 16 90 16 61 0 84
3 84 13 0 9 27 12 100 13 55 0 100 -3 100 -7z m2808 -4 c2 -2 -17 -5 -42 -7
-31 -2 -47 1 -51 10 -4 10 5 12 43 6 26 -3 48 -8 50 -9z m72 5 c0 -5 -9 -10
-21 -10 -11 0 -17 5 -14 10 3 6 13 10 21 10 8 0 14 -4 14 -10z m1037 -4 c-3
-7 0 -19 6 -25 8 -8 5 -11 -12 -11 -17 0 -22 4 -17 16 3 9 6 20 6 25 0 5 5 9
11 9 6 0 9 -6 6 -14z m138 4 c3 -5 1 -10 -4 -10 -6 0 -11 5 -11 10 0 6 2 10 4
10 3 0 8 -4 11 -10z m-8135 -4 c0 -3 -4 -8 -10 -11 -5 -3 -10 -1 -10 4 0 6 5
11 10 11 6 0 10 -2 10 -4z m130 -29 c0 -18 -2 -19 -10 -7 -13 20 -13 43 0 35
6 -3 10 -16 10 -28z m4220 30 c0 -2 -10 -12 -22 -23 l-23 -19 19 23 c18 21 26
27 26 19z m616 -14 c-3 -3 -23 -7 -46 -8 -22 -2 -48 -9 -57 -16 -13 -11 -17
-11 -20 -1 -3 6 -13 12 -24 12 -17 0 -25 11 -15 21 2 2 41 3 86 1 45 -2 79 -6
76 -9z m-5753 0 c-7 -2 -19 -2 -25 0 -7 3 -2 5 12 5 14 0 19 -2 13 -5z m1354
-14 c-11 -18 -43 -37 -34 -21 2 4 6 14 10 23 3 9 12 16 20 16 12 0 13 -4 4
-18z m-1455 0 c-23 -4 -47 -11 -52 -14 -6 -3 -16 -3 -22 1 -17 11 24 22 77 22
l40 0 -43 -9z m471 4 c-7 -2 -19 -2 -25 0 -7 3 -2 5 12 5 14 0 19 -2 13 -5z
m146 -9 c2 -2 -26 -4 -63 -4 -39 0 -65 4 -61 9 5 9 114 4 124 -5z m211 7 c0
-15 -16 -22 -35 -15 -13 5 -14 8 -3 15 18 12 38 11 38 0z m4240 0 c0 -6 -17
-7 -37 -4 -52 8 -54 13 -5 13 23 0 42 -4 42 -9z m544 -15 c3 -12 6 -24 6 -28
0 -5 -68 -8 -152 -8 -83 0 -148 3 -144 7 9 10 9 10 139 11 75 2 106 5 101 13
-3 6 -17 8 -30 5 -16 -4 -24 -2 -24 6 0 9 17 13 49 14 42 0 50 -3 55 -20z
m506 9 c0 -8 -4 -15 -9 -15 -13 0 -22 16 -14 24 11 11 23 6 23 -9z m2523 3
l52 -1 -64 -6 c-36 -3 -83 -4 -105 -2 l-41 5 40 7 c22 3 46 4 53 3 8 -2 37 -5
65 -6z m387 2 c0 -5 -4 -10 -10 -10 -5 0 -10 5 -10 10 0 6 5 10 10 10 6 0 10
-4 10 -10z m-8332 -7 c-10 -2 -28 -2 -40 0 -13 2 -5 4 17 4 22 1 32 -1 23 -4z
m1999 -15 c-3 -8 -6 -5 -6 6 -1 11 2 17 5 13 3 -3 4 -12 1 -19z m953 2 c0 -16
-6 -20 -32 -19 -29 0 -30 1 -12 9 12 5 25 13 29 19 10 16 15 13 15 -9z m3956
-22 l29 -33 -32 29 c-31 28 -38 36 -30 36 2 0 16 -15 33 -32z m-7836 2 c0 -4
-7 -11 -16 -14 -28 -11 -35 -7 -24 14 10 18 40 18 40 0z m1950 0 c0 -13 -5
-18 -15 -14 -16 7 -19 17 -8 27 12 13 23 7 23 -13z m690 -6 c0 -2 -9 0 -20 6
-11 6 -20 13 -20 16 0 2 9 0 20 -6 11 -6 20 -13 20 -16z m528 14 c-6 -18 -28
-21 -28 -4 0 9 7 16 16 16 9 0 14 -5 12 -12z m2147 3 c17 -7 17 -8 -8 -13 -19
-4 -27 -1 -27 8 0 15 6 16 35 5z m150 -11 c-3 -5 3 -13 12 -19 16 -9 16 -10
-4 -11 -14 0 -23 6 -23 15 0 8 -6 15 -12 15 -9 0 -8 3 2 9 16 11 33 4 25 -9z
m-5381 -5 c-7 -17 -7 -17 -29 -9 -13 5 -14 8 -3 15 21 14 38 10 32 -6z m5333
9 c-3 -3 -12 -4 -19 -1 -8 3 -5 6 6 6 11 1 17 -2 13 -5z m119 -16 c-1 -13 -11
-25 -21 -27 -13 -2 -16 1 -11 14 3 9 6 21 6 26 0 5 7 9 15 9 10 0 14 -8 11
-22z m1121 -5 c-3 -3 -11 -2 -17 2 -9 6 -9 10 1 16 14 8 27 -7 16 -18z m2518
17 c3 -5 -3 -10 -14 -10 -11 0 -23 5 -26 10 -3 6 3 10 14 10 11 0 23 -4 26
-10z m85 0 c0 -5 -4 -10 -10 -10 -5 0 -10 5 -10 10 0 6 5 10 10 10 6 0 10 -4
10 -10z m-7630 -13 c0 -2 -10 -12 -22 -23 l-23 -19 19 23 c18 21 26 27 26 19z
m1094 -22 c29 -13 29 -13 -16 -11 -25 0 -44 5 -41 10 3 4 -1 13 -8 18 -17 11
20 2 65 -17z m-434 -6 c0 -5 -4 -9 -10 -9 -5 0 -10 7 -10 16 0 8 5 12 10 9 6
-3 10 -10 10 -16z m1400 11 c0 -5 -4 -10 -9 -10 -6 0 -13 5 -16 10 -3 6 1 10
9 10 9 0 16 -4 16 -10z m1050 -35 c-24 -25 -46 -45 -49 -45 -3 0 15 20 39 45
24 25 46 45 49 45 3 0 -15 -20 -39 -45z m4559 29 c2 -2 -10 -4 -27 -4 -18 0
-32 5 -32 10 0 9 47 4 59 -6z m86 -5 c-4 -5 4 -13 16 -18 23 -8 23 -8 -3 -13
-21 -4 -27 -1 -31 18 -2 13 -2 26 1 28 8 9 23 -5 17 -15z m-6431 -30 c-2 -4 3
-12 11 -19 10 -9 15 -9 15 -1 0 6 4 11 10 11 5 0 9 -11 8 -25 l-2 -25 -33 32
c-18 18 -33 41 -33 52 0 19 0 20 14 1 8 -11 12 -23 10 -26z m2416 38 c0 -2
-10 -12 -22 -23 l-23 -19 19 23 c18 21 26 27 26 19z m-1770 -11 c0 -2 -7 -7
-16 -10 -8 -3 -12 -2 -9 4 6 10 25 14 25 6z m2483 -2 c11 -11 -3 -24 -18 -18
-8 4 -12 10 -9 15 6 11 18 12 27 3z m1087 -20 c0 -8 -4 -12 -10 -9 -5 3 -10
13 -10 21 0 8 5 12 10 9 6 -3 10 -13 10 -21z m-4377 9 c-7 -2 -19 -2 -25 0 -7
3 -2 5 12 5 14 0 19 -2 13 -5z m747 -6 c0 -6 -15 -17 -32 -23 -18 -6 -42 -14
-53 -18 -11 -4 -7 0 10 10 16 9 35 23 43 30 17 17 32 18 32 1z m-3663 -29
c-36 -29 -37 -32 -21 -49 16 -17 15 -18 -10 -6 -14 7 -26 14 -26 17 1 6 83 70
90 70 3 -1 -12 -15 -33 -32z m2963 23 c0 -5 -6 -11 -13 -14 -8 -3 -14 1 -14 9
0 8 6 14 14 14 7 0 13 -4 13 -9z m940 4 c0 -3 -8 -13 -17 -23 -10 -9 -26 -29
-35 -42 -12 -16 -10 -8 5 22 12 26 28 47 35 48 6 0 12 -2 12 -5z m176 -17 c14
-17 15 -20 2 -9 -9 7 -22 10 -28 6 -5 -3 -10 -2 -10 4 0 5 -24 12 -52 14 l-53
3 61 2 c52 2 64 -1 80 -20z m4404 1 c0 -5 -7 -9 -15 -9 -15 0 -20 12 -9 23 8
8 24 -1 24 -14z m1097 15 c-3 -3 -12 -4 -19 -1 -8 3 -5 6 6 6 11 1 17 -2 13
-5z m-8972 -34 c0 -16 -37 -23 -46 -8 -4 6 -5 17 -2 24 6 16 48 2 48 -16z
m6921 11 c-2 -23 -24 -34 -40 -19 -11 11 -11 14 2 24 21 15 39 13 38 -5z
m-7211 -1 c3 -5 -1 -10 -9 -10 -9 0 -16 5 -16 10 0 6 4 10 9 10 6 0 13 -4 16
-10z m1365 7 c0 -2 -15 -16 -32 -33 l-33 -29 29 33 c28 30 36 37 36 29z m3760
-1 c0 -1 -30 -31 -67 -66 -37 -36 -50 -46 -28 -22 29 31 35 42 22 42 -9 0 -17
7 -17 15 0 8 9 15 20 15 14 0 18 -5 13 -17 -6 -16 -5 -16 10 -5 9 8 16 17 15
20 -1 14 3 19 17 19 8 0 15 -1 15 -1z m-4580 -21 c0 -8 -4 -15 -9 -15 -13 0
-22 16 -14 24 11 11 23 6 23 -9z m1670 5 c0 -5 -4 -10 -9 -10 -6 0 -13 5 -16
10 -3 6 1 10 9 10 9 0 16 -4 16 -10z m5748 -23 c2 -12 -1 -15 -12 -11 -19 7
-22 38 -3 32 6 -3 13 -12 15 -21z m782 2 c0 -14 -5 -19 -17 -17 -26 5 -29 38
-4 38 15 0 21 -6 21 -21z m-6652 -1 c-2 -6 -10 -14 -16 -16 -7 -2 -10 2 -6 12
7 18 28 22 22 4z m292 2 c0 -5 -7 -10 -15 -10 -8 0 -15 5 -15 10 0 6 7 10 15
10 8 0 15 -4 15 -10z m830 -20 c-14 -10 -26 -17 -28 -16 -7 8 12 35 26 39 28
6 28 -3 2 -23z m4551 13 c13 -16 12 -17 -3 -4 -10 7 -18 15 -18 17 0 8 8 3 21
-13z m1362 10 c4 -3 -2 -13 -13 -20 -17 -12 -24 -12 -36 -2 -12 10 -12 14 -2
20 16 10 42 11 51 2z m67 -3 c0 -5 -7 -10 -16 -10 -8 0 -12 5 -9 10 3 6 10 10
16 10 5 0 9 -4 9 -10z m-6590 -15 c0 -8 -4 -15 -10 -15 -5 0 -10 7 -10 15 0 8
5 15 10 15 6 0 10 -7 10 -15z m1231 -2 c13 -16 12 -17 -3 -4 -17 13 -22 21
-14 21 2 0 10 -8 17 -17z m581 -8 c-2 -14 -8 -25 -12 -25 -4 0 -7 11 -7 25 0
14 5 25 12 25 8 0 10 -9 7 -25z m78 15 c0 -5 -7 -10 -15 -10 -8 0 -15 5 -15
10 0 6 7 10 15 10 8 0 15 -4 15 -10z m4475 0 c-3 -5 -10 -10 -16 -10 -5 0 -9
5 -9 10 0 6 7 10 16 10 8 0 12 -4 9 -10z m-9127 -23 c2 -10 -4 -20 -13 -23
-21 -9 -28 0 -20 26 8 24 28 22 33 -3z m822 13 c0 -13 -11 -13 -30 0 -12 8
-11 10 8 10 12 0 22 -4 22 -10z m444 -7 c8 -21 -6 -35 -27 -27 -13 5 -14 10
-6 25 12 23 25 24 33 2z m1732 1 c-4 -10 8 -29 36 -55 23 -21 36 -39 28 -39
-8 1 -34 23 -58 50 -24 28 -37 47 -28 44 9 -3 16 -1 16 5 0 6 3 11 6 11 3 0 3
-7 0 -16z m4594 -3 c-1 -17 -17 -29 -29 -21 -19 11 -6 41 14 34 8 -3 15 -9 15
-13z m987 5 c-3 -7 0 -19 6 -26 7 -7 0 -5 -15 5 -33 21 -36 35 -7 35 14 0 19
-5 16 -14z m-4717 -9 c0 -4 3 -6 8 -4 4 3 16 1 27 -4 14 -5 7 -8 -27 -8 -33
-1 -48 3 -48 12 0 7 9 13 20 13 11 0 20 -4 20 -9z m-1850 -17 c-6 -11 -15 -20
-20 -20 -16 0 -11 18 8 29 24 14 24 14 12 -9z m2872 -20 c-5 -34 -15 -32 -18
3 -2 26 4 39 15 33 4 -3 6 -19 3 -36z m4238 8 l0 -33 -60 3 c-50 3 -60 1 -60
-12 0 -17 -15 -22 -24 -8 -13 22 14 35 68 33 49 -1 56 1 56 17 0 17 8 32 17
32 2 0 3 -15 3 -32z m-9260 12 c0 -5 -2 -10 -4 -10 -3 0 -8 5 -11 10 -3 6 -1
10 4 10 6 0 11 -4 11 -10z m2290 -4 c0 -8 20 -22 45 -32 25 -9 43 -19 40 -22
-7 -8 -85 20 -85 30 0 4 -9 8 -20 8 -11 0 -20 7 -20 15 0 8 9 15 20 15 11 0
20 -6 20 -14z m1657 8 c-3 -3 -12 -4 -19 -1 -8 3 -5 6 6 6 11 1 17 -2 13 -5z
m688 -4 c-27 -12 -35 -12 -35 0 0 6 12 10 28 9 24 0 25 -1 7 -9z m430 0 c-3
-5 -10 -10 -16 -10 -5 0 -9 5 -9 10 0 6 7 10 16 10 8 0 12 -4 9 -10z m1893 -2
c-6 -18 -28 -21 -28 -4 0 9 7 16 16 16 9 0 14 -5 12 -12z m-5858 -14 c0 -8 -4
-12 -10 -9 -5 3 -10 10 -10 16 0 5 5 9 10 9 6 0 10 -7 10 -16z m470 12 c0 -2
-8 -10 -17 -17 -16 -13 -17 -12 -4 4 13 16 21 21 21 13z m658 -3 c-10 -2 -28
-2 -40 0 -13 2 -5 4 17 4 22 1 32 -1 23 -4z m1669 1 c-3 -3 -12 -4 -19 -1 -8
3 -5 6 6 6 11 1 17 -2 13 -5z m-3845 -46 l5 -29 -23 28 c-29 34 -30 43 -5 36
12 -3 21 -16 23 -35z m1578 33 c0 -12 -20 -25 -27 -18 -7 7 6 27 18 27 5 0 9
-4 9 -9z m1294 -7 c3 -8 2 -12 -4 -9 -6 3 -10 10 -10 16 0 14 7 11 14 -7z
m876 6 c0 -5 -4 -10 -10 -10 -5 0 -10 5 -10 10 0 6 5 10 10 10 6 0 10 -4 10
-10z m37 4 c-3 -3 -12 -4 -19 -1 -8 3 -5 6 6 6 11 1 17 -2 13 -5z m378 -4 c8
-13 -15 -13 -35 0 -12 8 -11 10 7 10 12 0 25 -4 28 -10z m3755 -11 c0 -5 -4
-9 -10 -9 -5 0 -10 7 -10 16 0 8 5 12 10 9 6 -3 10 -10 10 -16z m-6075 1 c-3
-5 -10 -10 -16 -10 -5 0 -9 5 -9 10 0 6 7 10 16 10 8 0 12 -4 9 -10z m215 -10
c0 -5 -9 -14 -20 -20 -46 -24 -7 -63 62 -62 31 1 38 -3 38 -19 0 -19 18 -24
83 -19 15 1 27 -3 27 -9 0 -6 11 -11 25 -11 18 0 25 -5 25 -20 0 -11 5 -20 11
-20 7 0 9 11 6 29 -6 26 -3 29 23 33 21 3 30 0 30 -9 0 -7 -10 -13 -21 -13
-19 0 -21 -4 -15 -30 5 -28 3 -30 -24 -30 -25 0 -30 4 -30 25 0 20 -5 25 -24
25 -13 0 -27 -6 -29 -12 -4 -8 -6 -7 -6 4 -1 13 -11 16 -53 15 -49 -2 -53 0
-51 21 2 19 -2 22 -31 22 -19 0 -36 5 -38 10 -2 6 -14 12 -27 15 -13 2 -26 6
-28 9 -8 8 8 46 17 41 5 -3 14 4 20 15 11 21 30 27 30 10z m338 -11 c-2 -6 -7
-10 -11 -10 -4 1 -17 1 -29 2 -22 0 -22 1 -3 9 28 12 47 12 43 -1z m62 -4 c0
-8 -4 -15 -10 -15 -5 0 -10 7 -10 15 0 8 5 15 10 15 6 0 10 -7 10 -15z m2349
6 c9 -6 10 -11 2 -15 -13 -8 -31 1 -31 15 0 11 11 11 29 0z m841 5 c0 -2 -7
-9 -15 -16 -12 -10 -15 -10 -15 4 0 9 7 16 15 16 8 0 15 -2 15 -4z m3361 -19
c-13 -13 -26 -3 -16 12 3 6 11 8 17 5 6 -4 6 -10 -1 -17z m-6071 -77 c27 -46
50 -88 50 -94 0 -7 16 -45 35 -85 39 -81 42 -108 4 -37 -13 25 -26 43 -29 41
-3 -2 -7 6 -7 17 -2 23 -23 51 -23 30 0 -7 -5 -12 -10 -12 -6 0 -8 11 -4 25 4
15 2 25 -5 25 -6 0 -11 7 -11 15 0 8 -6 15 -12 16 -10 0 -10 2 -1 5 9 4 5 22
-13 62 -51 113 -46 111 26 -8z m2005 80 c3 -5 1 -10 -4 -10 -6 0 -11 5 -11 10
0 6 2 10 4 10 3 0 8 -4 11 -10z m65 2 c0 -13 -12 -22 -22 -16 -10 6 -1 24 13
24 5 0 9 -4 9 -8z m38 -11 c3 -8 -1 -12 -9 -9 -7 2 -15 10 -17 17 -3 8 1 12 9
9 7 -2 15 -10 17 -17z m3872 -7 c0 -14 8 -16 45 -12 30 4 45 2 45 -6 0 -7 -26
-12 -69 -13 -67 -2 -69 -1 -67 23 1 18 7 24 24 24 14 0 22 -6 22 -16z m-8052
-103 c23 -23 47 -41 53 -41 6 0 17 -6 24 -14 12 -12 12 -15 1 -19 -7 -3 -43
25 -82 64 -45 45 -75 68 -86 66 -9 -3 -19 2 -22 10 -5 13 -26 14 -124 11 -64
-3 -125 -8 -135 -12 -13 -6 -16 -5 -11 8 5 14 26 16 141 16 104 0 133 3 127
13 -7 11 21 -13 114 -102z m2394 73 c-22 -10 -29 -9 -39 4 -18 22 2 32 38 19
l29 -11 -28 -12z m1943 28 c-6 -4 -21 -20 -33 -36 -29 -37 -29 -24 0 14 12 17
27 30 32 30 8 0 8 -3 1 -8z m1062 -7 c7 -20 -2 -29 -21 -22 -9 4 -13 13 -10
22 8 19 23 19 31 0z m-4827 1 c0 -2 -8 -10 -17 -17 -16 -13 -17 -12 -4 4 13
16 21 21 21 13z m954 -17 c-3 -5 -10 -7 -15 -3 -5 3 -7 10 -3 15 3 5 10 7 15
3 5 -3 7 -10 3 -15z m947 -2 c-13 -13 -26 -3 -16 12 3 6 11 8 17 5 6 -4 6 -10
-1 -17z m1053 -7 c8 -16 10 -30 5 -30 -5 0 -12 6 -15 14 -3 9 -25 14 -66 15
l-61 2 5 -46 c6 -48 0 -59 -26 -49 -15 6 -15 7 0 19 13 9 16 22 11 53 l-5 42
46 -4 c26 -2 56 0 67 5 11 4 21 8 22 8 1 1 8 -12 17 -29z m-4359 14 c13 -5 14
-8 3 -15 -19 -13 -28 -11 -28 6 0 17 2 18 25 9z m8812 -1 c-12 -3 -17 -11 -14
-22 2 -11 -5 -21 -19 -28 -21 -10 -24 -9 -24 8 0 10 7 19 15 19 8 0 15 7 15
15 0 9 9 15 23 14 18 -1 19 -2 4 -6z m-5887 -19 c0 -8 -4 -12 -10 -9 -5 3 -10
10 -10 16 0 5 5 9 10 9 6 0 10 -7 10 -16z m-2800 -9 c0 -17 -2 -18 -25 -9 -13
5 -14 8 -3 15 19 13 28 11 28 -6z m4410 -6 c0 -5 -4 -9 -10 -9 -5 0 -10 7 -10
16 0 8 5 12 10 9 6 -3 10 -10 10 -16z m86 -11 c-3 -13 -6 -30 -7 -38 -1 -8 -5
-1 -8 15 -8 33 -5 45 11 45 6 0 8 -10 4 -22z m394 12 c3 -1 -6 -5 -20 -9 -28
-9 -43 -4 -35 10 5 7 32 7 55 -1z m3376 -5 c17 -13 14 -14 -41 -13 -33 0 -50
3 -37 5 12 2 22 9 22 14 0 14 34 11 56 -6z m-113 -10 c0 -6 -7 -11 -16 -13
-12 -3 -15 1 -11 13 7 17 25 17 27 0z m239 -10 c-4 -25 -22 -25 -22 0 0 9 -6
12 -17 9 -15 -5 -16 -4 -3 5 28 20 48 13 42 -14z m-8357 -3 c-3 -3 -11 0 -18
7 -9 10 -8 11 6 5 10 -3 15 -9 12 -12z m4937 5 c-6 -7 -8 -23 -5 -36 5 -20 3
-22 -13 -13 -10 5 -25 7 -33 4 -8 -3 1 9 20 26 36 33 49 41 31 19z m1453 -17
c-6 -9 -9 -9 -16 1 -10 17 0 34 13 21 6 -6 7 -16 3 -22z m-1649 -7 c-10 -10
-19 5 -10 18 6 11 8 11 12 0 2 -7 1 -15 -2 -18z m3285 10 c13 -16 12 -17 -3
-4 -10 7 -18 15 -18 17 0 8 8 3 21 -13z m519 14 c0 -2 -12 -14 -27 -28 l-28
-24 24 28 c23 25 31 32 31 24z m-8580 -11 c0 -3 -4 -8 -10 -11 -5 -3 -10 -1
-10 4 0 6 5 11 10 11 6 0 10 -2 10 -4z m927 -22 c-9 -9 -28 6 -21 18 4 6 10 6
17 -1 6 -6 8 -13 4 -17z m7054 3 c-13 -13 -26 -3 -16 12 3 6 11 8 17 5 6 -4 6
-10 -1 -17z m-6791 9 c0 -2 -8 -10 -17 -17 -16 -13 -17 -12 -4 4 13 16 21 21
21 13z m3132 -52 c12 -1 34 -3 48 -4 18 -2 20 -4 7 -7 -15 -4 -16 -7 -5 -21 9
-13 7 -12 -9 2 -12 10 -29 16 -37 13 -17 -7 -76 44 -76 64 1 8 11 2 25 -15 13
-16 34 -30 47 -32z m2138 46 c0 -5 -4 -10 -10 -10 -5 0 -10 5 -10 10 0 6 5 10
10 10 6 0 10 -4 10 -10z m1652 -13 c-7 -8 -9 -17 -5 -20 3 -4 -1 -7 -10 -7
-25 0 -31 21 -8 27 12 3 21 10 21 16 0 6 3 7 6 4 4 -4 2 -13 -4 -20z m531 8
c4 -8 2 -17 -3 -20 -6 -4 -10 3 -10 14 0 25 6 27 13 6z m-4608 -1 c13 -5 14
-8 3 -15 -19 -13 -28 -11 -28 6 0 17 2 18 25 9z m-3806 -20 c2 -2 -30 -4 -73
-4 -50 0 -75 4 -71 10 6 9 133 4 144 -6z m41 1 c0 -9 -6 -12 -15 -9 -8 4 -12
10 -9 15 8 14 24 10 24 -6z m4510 5 c0 -5 -7 -10 -16 -10 -8 0 -12 5 -9 10 3
6 10 10 16 10 5 0 9 -4 9 -10z m74 -27 l-7 -38 22 19 c28 26 27 15 -2 -12
l-23 -22 -1 23 c-1 12 -5 32 -8 45 -4 16 -1 22 10 22 13 0 15 -7 9 -37z m3533
-23 c-5 -66 4 -81 33 -55 14 12 20 13 26 4 4 -7 3 -10 -3 -6 -13 8 -76 -57
-66 -67 5 -4 2 -6 -6 -4 -7 2 -16 -3 -18 -9 -3 -7 2 -13 9 -13 19 0 110 94
101 105 -5 4 -2 5 5 1 7 -4 12 -1 12 9 0 11 7 15 23 13 16 -2 22 2 22 17 0 16
6 19 32 17 17 -2 34 2 38 7 11 19 27 13 16 -6 -5 -10 -21 -17 -38 -18 -21 0
-28 -5 -28 -20 0 -11 -7 -20 -15 -21 -8 0 -20 -2 -26 -2 -7 -1 -40 -29 -75
-62 -34 -33 -69 -61 -77 -62 -24 -5 -22 32 3 54 25 22 25 41 0 31 -8 -3 -15 0
-15 6 0 6 7 11 15 11 11 0 15 12 15 49 0 48 7 81 17 81 3 0 3 -27 0 -60z
m-397 40 c0 -5 -4 -10 -10 -10 -5 0 -10 5 -10 10 0 6 5 10 10 10 6 0 10 -4 10
-10z m-8048 -32 c-6 -6 -15 -8 -19 -4 -4 4 -1 11 7 16 19 12 27 3 12 -12z
m4558 6 c0 -11 -5 -14 -16 -10 -9 3 -28 7 -42 7 -23 1 -22 3 8 9 19 4 38 8 43
9 4 0 7 -6 7 -15z m-4631 -11 c-7 -10 -15 -20 -16 -22 -2 -2 -3 5 -3 17 0 14
6 22 16 22 14 0 15 -3 3 -17z m1261 14 c0 -2 -15 -16 -32 -33 l-33 -29 29 33
c28 30 36 37 36 29z m4105 -35 c6 -38 -5 -42 -21 -8 -8 17 -8 28 -1 35 14 14
15 12 22 -27z m595 25 c0 -19 -20 -36 -36 -30 -24 9 -16 38 11 41 15 1 25 -3
25 -11z m2284 -52 c17 0 20 -7 20 -58 0 -31 -4 -56 -10 -54 -5 1 -8 21 -7 45
2 36 -1 42 -17 42 -17 0 -20 7 -19 48 2 44 2 45 8 12 4 -26 11 -35 25 -35z
m42 33 l29 -33 -32 29 c-31 28 -38 36 -30 36 2 0 16 -15 33 -32z m-6958 4 c2
-7 -3 -12 -12 -12 -9 0 -16 7 -16 16 0 17 22 14 28 -4z m2832 3 c0 -8 -8 -15
-17 -15 -19 -1 -64 -30 -47 -30 5 0 1 -5 -9 -11 -10 -6 -22 -8 -25 -4 -4 4 1
11 11 16 9 6 29 21 45 34 32 28 42 31 42 10z m4460 11 c0 -2 -8 -10 -17 -17
-16 -13 -17 -12 -4 4 13 16 21 21 21 13z m-1860 -16 c0 -5 -7 -10 -15 -10 -8
0 -15 5 -15 10 0 6 7 10 15 10 8 0 15 -4 15 -10z m-5766 -16 c4 -11 1 -14 -11
-12 -9 2 -18 9 -21 16 -6 18 25 15 32 -4z m1699 -20 c-4 -12 -8 -13 -14 -3 -9
15 -2 32 11 24 5 -3 6 -13 3 -21z m-2717 -10 c-4 -9 -9 -15 -11 -12 -3 3 -3
13 1 22 4 9 9 15 11 12 3 -3 3 -13 -1 -22z m6874 22 c0 -3 -4 -8 -10 -11 -5
-3 -10 -1 -10 4 0 6 5 11 10 11 6 0 10 -2 10 -4z m-5380 -16 c13 -8 13 -10 -2
-10 -9 0 -20 5 -23 10 -8 13 5 13 25 0z m950 -6 c0 -8 -4 -12 -10 -9 -5 3 -10
10 -10 16 0 5 5 9 10 9 6 0 10 -7 10 -16z m4805 6 c3 -5 1 -10 -4 -10 -6 0
-11 5 -11 10 0 6 2 10 4 10 3 0 8 -4 11 -10z m-3005 -10 c0 -5 -9 -10 -19 -10
-11 0 -23 5 -26 10 -4 6 5 10 19 10 14 0 26 -4 26 -10z m48 -15 c-3 -14 -1
-28 3 -31 5 -3 13 -13 19 -24 9 -16 7 -17 -15 -7 -19 10 -24 19 -23 49 0 21 5
38 10 38 6 0 8 -11 6 -25z m-3091 0 c0 -8 -4 -12 -8 -10 -8 6 -30 -19 -33 -37
-1 -7 -4 -17 -7 -23 -3 -5 0 -28 7 -50 11 -34 13 -36 13 -13 1 15 5 29 10 32
5 4 7 -4 3 -16 -4 -16 -2 -19 9 -13 12 7 12 6 1 -7 -10 -12 -9 -18 3 -28 8 -7
12 -17 9 -22 -4 -6 27 -44 67 -87 l74 -76 -80 78 -81 77 4 -65 c2 -36 2 -65
-1 -65 -3 0 -11 33 -18 73 -13 73 -15 81 -19 95 -4 12 -7 26 -9 42 -1 8 -6 22
-11 30 -8 12 -14 10 -42 -15 -18 -17 -26 -22 -19 -12 11 14 11 20 0 35 -13 15
-12 16 3 4 23 -18 40 -6 36 26 -3 24 0 27 23 24 15 -2 32 5 44 18 22 24 22 24
22 5z m3763 12 c0 -2 -12 -14 -27 -28 l-28 -24 24 28 c23 25 31 32 31 24z
m-3272 -55 c-2 -9 -13 -18 -24 -20 -21 -3 -23 4 -15 51 0 4 10 3 22 -3 11 -6
19 -19 17 -28z m5655 22 c9 -9 -4 -35 -14 -28 -5 3 -9 12 -9 20 0 14 12 19 23
8z m478 -7 c-1 -12 -15 -9 -19 4 -3 6 1 10 8 8 6 -3 11 -8 11 -12z m580 -4
c13 -16 12 -17 -3 -4 -10 7 -18 15 -18 17 0 8 8 3 21 -13z m-2051 -8 c0 -8 -4
-15 -10 -15 -5 0 -10 7 -10 15 0 8 5 15 10 15 6 0 10 -7 10 -15z m-1709 -12
c13 -16 12 -17 -3 -4 -10 7 -18 15 -18 17 0 8 8 3 21 -13z m-59 -8 c0 -5 -5
-11 -11 -13 -6 -2 -11 4 -11 13 0 9 5 15 11 13 6 -2 11 -8 11 -13z m208 -3 c0
-10 -3 -22 -7 -25 -10 -11 -32 13 -26 29 8 20 33 17 33 -4z m224 -24 c-3 -4
-12 -8 -20 -8 -12 0 -13 4 -3 21 9 17 13 19 19 8 5 -7 6 -17 4 -21z m-125 20
c-2 -2 -17 -14 -34 -28 l-30 -25 24 28 c14 15 29 27 34 27 6 0 8 -1 6 -2z
m3301 -17 c0 -3 -7 -15 -15 -25 -13 -17 -15 -18 -15 -3 0 9 -6 17 -13 17 -15
0 -89 -84 -100 -112 -3 -10 -11 -18 -16 -18 -15 0 -26 23 -13 28 13 4 73 62
100 97 10 12 24 24 32 27 17 6 40 -1 40 -11z m-5215 -10 c64 -3 72 -11 11 -11
-25 0 -62 -7 -82 -15 l-35 -14 23 28 c13 15 25 25 28 21 3 -3 27 -8 55 -9z
m95 -6 c0 -9 -6 -12 -15 -9 -8 4 -12 10 -9 15 8 14 24 10 24 -6z m1307 -15 c6
0 10 -18 9 -39 0 -32 -4 -38 -16 -32 -12 7 -99 6 -197 -2 -12 -1 -21 3 -20 8
1 6 41 11 92 11 134 2 127 1 119 27 -3 12 -14 31 -23 42 -16 20 -16 20 5 3 11
-10 25 -18 31 -18z m4033 -37 c-36 -37 -66 -69 -67 -72 -2 -2 -6 -1 -10 2 -3
4 15 25 40 48 26 22 45 45 42 49 -3 5 4 11 15 15 11 3 20 11 20 16 0 5 5 9 12
9 7 0 -17 -30 -52 -67z m-128 16 c5 -3 1 -9 -11 -12 -12 -3 -22 1 -25 10 -3 8
-1 11 4 8 6 -3 10 2 11 12 0 14 2 15 6 3 3 -8 10 -18 15 -21z m-3009 -13 c-4
-6 -8 -15 -8 -21 0 -5 -4 -11 -10 -12 -5 -2 -10 2 -9 7 1 6 2 19 3 30 0 13 6
17 16 14 8 -4 12 -11 8 -18z m1770 11 c3 -8 1 -20 -3 -27 -11 -18 -41 5 -33
26 7 18 29 18 36 1z m1308 -2 c-18 -8 -38 -12 -44 -8 -13 8 23 21 58 22 13 0
8 -5 -14 -14z m-5501 -10 c-7 -8 -19 -15 -26 -15 -8 0 -14 -4 -14 -9 0 -5 -7
-12 -16 -15 -26 -10 2 21 35 38 35 18 35 18 21 1z m1891 -2 c13 -16 12 -17 -3
-4 -17 13 -22 21 -14 21 2 0 10 -8 17 -17z m599 3 c0 -8 7 -16 15 -18 10 -2 7
-6 -9 -14 -22 -10 -24 -9 -28 17 -3 20 0 29 9 29 7 0 13 -6 13 -14z m375 -6
c-3 -5 -13 -6 -21 -3 -12 4 -13 8 -3 14 15 9 32 2 24 -11z m56 7 c-1 -12 -15
-9 -19 4 -3 6 1 10 8 8 6 -3 11 -8 11 -12z m-4741 -10 c0 -2 -10 -12 -22 -23
l-23 -19 19 23 c18 21 26 27 26 19z m1138 -25 c2 -14 -2 -22 -12 -22 -19 0
-29 17 -22 36 8 22 30 12 34 -14z m4397 18 c3 -5 1 -10 -4 -10 -6 0 -11 5 -11
10 0 6 2 10 4 10 3 0 8 -4 11 -10z m-1090 -21 c-7 -20 -4 -21 21 -16 17 3 37
0 48 -8 16 -12 12 -14 -38 -12 -49 2 -56 5 -52 20 3 12 -2 17 -17 18 -21 0
-21 1 -2 9 35 15 47 12 40 -11z m-689 -11 c19 -23 19 -23 -2 -5 -11 9 -24 14
-29 10 -4 -5 -5 -2 -1 5 9 16 10 16 32 -10z m3364 13 c0 -6 -4 -13 -10 -16 -5
-3 -10 1 -10 9 0 9 5 16 10 16 6 0 10 -4 10 -9z m30 -1 c0 -5 -4 -10 -10 -10
-5 0 -10 5 -10 10 0 6 5 10 10 10 6 0 10 -4 10 -10z m-2401 -19 c9 -15 7 -18
-12 -16 -12 1 -28 3 -34 4 -7 0 -13 6 -13 12 0 6 7 9 15 6 8 -4 17 -2 20 3 9
14 13 12 24 -9z m2151 -3 c0 -5 -9 -21 -21 -37 -11 -15 -26 -52 -34 -82 -9
-37 -13 -45 -14 -26 -1 17 -7 27 -16 27 -8 0 -15 5 -15 10 0 6 9 10 19 10 14
0 22 10 27 33 4 17 9 35 10 40 1 4 2 16 3 26 1 14 6 18 21 14 11 -3 20 -9 20
-15z m-5162 0 c-3 -7 -12 -14 -21 -16 -12 -2 -15 1 -11 12 7 19 38 22 32 4z
m2312 2 c0 -5 -4 -10 -10 -10 -5 0 -10 5 -10 10 0 6 5 10 10 10 6 0 10 -4 10
-10z m193 -34 c29 -3 80 -6 114 -6 67 0 86 -11 48 -28 -16 -7 -25 -8 -27 -1
-2 6 -46 12 -101 14 -54 2 -100 5 -102 7 -2 1 0 17 3 33 5 24 7 26 10 9 2 -18
12 -22 55 -28z m-3722 19 c-1 -10 -20 -14 -34 -7 -4 2 -5 8 -1 13 7 13 35 8
35 -6z m6706 -4 c-1 -22 -57 -37 -57 -15 0 7 8 10 20 7 14 -4 20 0 20 11 0 9
4 16 9 16 6 0 9 -9 8 -19z m-4147 -6 c-11 -13 -8 -21 21 -52 23 -23 27 -32 13
-25 -11 6 -26 18 -34 26 -7 9 -19 16 -26 16 -21 0 -17 16 9 33 28 20 33 21 17
2z m450 -15 c-18 -11 -24 -6 -16 16 5 14 9 15 19 5 9 -9 9 -14 -3 -21z m166 8
c-1 -15 -8 -22 -24 -23 l-22 -2 22 24 c26 28 26 28 24 1z m1844 1 c0 -5 -7 -9
-15 -9 -15 0 -20 12 -9 23 8 8 24 -1 24 -14z m-3939 -20 c-68 -35 -70 -35 -43
-6 12 13 20 25 18 28 -2 2 15 4 38 5 l43 1 -56 -28z m2989 16 c33 -19 21 -19
-21 0 -19 8 -27 14 -19 14 8 0 26 -6 40 -14z m-4670 2 c0 -2 -10 -12 -22 -23
l-23 -19 19 23 c18 21 26 27 26 19z m3260 -12 c0 -8 -4 -15 -9 -15 -13 0 -22
16 -14 24 11 11 23 6 23 -9z m443 8 c-7 -2 -19 -2 -25 0 -7 3 -2 5 12 5 14 0
19 -2 13 -5z m172 -23 l28 -30 -38 20 c-22 11 -46 20 -55 21 -10 0 -9 3 5 9
29 13 29 13 60 -20z m289 15 c-4 -8 -10 -15 -15 -15 -5 0 -9 7 -9 15 0 8 7 15
15 15 9 0 12 -6 9 -15z m733 -11 c-9 -9 -28 6 -21 18 4 6 10 6 17 -1 6 -6 8
-13 4 -17z m-912 -84 l29 -35 -31 29 c-17 15 -36 25 -41 22 -6 -3 -17 -3 -26
0 -15 6 -15 8 1 21 10 8 12 11 3 7 -8 -4 -12 -3 -7 1 4 5 -3 20 -15 34 -13 15
-6 11 17 -9 22 -19 53 -51 70 -70z m599 68 c7 -36 1 -50 -9 -19 -3 12 -10 21
-15 21 -5 0 -7 7 -4 15 10 24 21 17 28 -17z m236 -8 c0 -5 -11 -20 -25 -34
-14 -14 -25 -32 -25 -39 0 -8 -7 -17 -15 -20 -8 -4 -26 -25 -41 -48 -21 -33
-23 -43 -12 -50 10 -7 10 -9 -2 -9 -8 0 -21 -10 -28 -21 -16 -26 -27 -16 -35
31 -6 34 -6 34 7 11 13 -24 14 -24 51 35 21 32 51 74 67 93 16 18 27 39 24 46
-3 8 0 16 7 18 14 5 27 -1 27 -13z m350 -13 c0 -8 -7 -14 -15 -14 -8 0 -15 6
-15 14 0 7 7 13 15 13 8 0 15 -6 15 -13z m-3551 1 c-2 -2 -17 -14 -34 -28
l-30 -25 24 28 c14 15 29 27 34 27 6 0 8 -1 6 -2z m5548 -19 c-6 -9 -18 -15
-26 -14 -9 2 -18 4 -20 4 -10 2 32 28 44 28 10 0 10 -5 2 -18z m-3624 -9 c4
-17 14 -20 55 -20 28 0 54 5 57 10 4 6 12 7 18 3 21 -13 86 -14 144 -4 31 6
59 9 61 6 3 -3 -9 -8 -26 -11 -18 -4 -32 -11 -32 -16 0 -5 -8 -7 -17 -4 -19 6
-102 8 -209 5 -34 -1 -70 3 -80 9 -10 6 -13 12 -6 12 6 0 12 7 12 15 0 22 17
18 23 -5z m482 10 c8 -13 -25 -13 -45 0 -12 8 -9 10 12 10 15 0 30 -4 33 -10z
m-3065 -25 c0 -8 -7 -15 -15 -15 -8 0 -15 7 -15 15 0 8 7 15 15 15 8 0 15 -7
15 -15z m-710 -11 c0 -8 -5 -12 -10 -9 -6 4 -8 11 -5 16 9 14 15 11 15 -7z
m6360 6 c0 -5 -4 -10 -10 -10 -5 0 -10 5 -10 10 0 6 5 10 10 10 6 0 10 -4 10
-10z m211 -66 c-2 -47 1 -64 10 -64 10 0 10 -3 1 -12 -18 -18 -20 -9 -22 67
-2 87 -2 90 7 81 4 -4 6 -36 4 -72z m219 61 c-7 -8 -18 -15 -24 -15 -7 0 -31
-16 -53 -35 -26 -22 -44 -31 -48 -25 -4 6 -5 12 -4 14 2 1 21 11 42 21 21 11
46 28 55 37 22 22 50 25 32 3z m-3740 -35 c34 -34 37 -40 19 -40 -11 0 -18 4
-14 9 3 5 -12 23 -32 40 -21 17 -32 31 -25 31 6 0 30 -18 52 -40z m627 3 c-3
-10 -5 -4 -5 12 0 17 2 24 5 18 2 -7 2 -21 0 -30z m3313 17 c0 -11 -4 -20 -9
-20 -5 0 -7 9 -4 20 3 11 7 20 9 20 2 0 4 -9 4 -20z m-492 -10 c-8 -13 -15
-16 -19 -8 -10 15 -2 28 17 28 12 0 12 -4 2 -20z m-6448 -29 c12 -12 10 -11
-9 0 -14 9 -27 22 -29 30 -3 11 -2 11 9 -1 8 -8 21 -21 29 -29z m1220 19 c-6
-11 -15 -20 -20 -20 -16 0 -11 18 8 29 24 14 24 14 12 -9z m2605 10 c3 -5 16
-10 27 -10 12 0 19 -3 16 -6 -9 -8 -78 7 -78 17 0 12 27 11 35 -1z m221 -28
c-22 -5 -30 3 -21 18 5 8 11 7 22 -2 15 -12 14 -13 -1 -16z m584 18 c0 -5 -4
-10 -9 -10 -6 0 -13 5 -16 10 -3 6 1 10 9 10 9 0 16 -4 16 -10z m-1330 -13 c0
-2 -10 -12 -22 -23 l-23 -19 19 23 c18 21 26 27 26 19z m3640 -22 c0 -15 -21
-12 -30 5 -11 20 -10 21 9 10 12 -6 21 -13 21 -15z m-2988 3 c-9 -9 -15 -9
-24 0 -9 9 -7 12 12 12 19 0 21 -3 12 -12z m-2772 -2 c0 -2 -8 -10 -17 -17
-16 -13 -17 -12 -4 4 13 16 21 21 21 13z m5710 0 c0 -2 -8 -10 -17 -17 -16
-13 -17 -12 -4 4 13 16 21 21 21 13z m-6802 -56 c7 0 12 -10 12 -22 1 -13 7
-34 15 -48 8 -14 14 -29 14 -35 1 -5 -13 15 -30 45 -16 30 -42 68 -57 85 l-27
30 31 -27 c16 -16 35 -28 42 -28z m3693 33 c13 -16 12 -17 -3 -4 -10 7 -18 15
-18 17 0 8 8 3 21 -13z m346 -13 c-2 -17 -9 -36 -16 -43 -9 -9 -11 -4 -9 23 2
29 12 49 25 50 2 0 1 -14 0 -30z m2667 -8 c-6 -28 -9 -31 -33 -25 -34 8 -39
13 -13 13 15 0 22 6 22 19 0 11 6 21 13 24 17 6 18 4 11 -31z m-5924 12 c0 -8
-5 -12 -10 -9 -6 4 -8 11 -5 16 9 14 15 11 15 -7z m2070 1 c-7 -8 -19 -15 -27
-15 -13 0 -13 3 -3 15 7 8 19 15 27 15 13 0 13 -3 3 -15z m574 -6 c-3 -5 -10
-7 -15 -3 -5 3 -7 10 -3 15 3 5 10 7 15 3 5 -3 7 -10 3 -15z m109 -1 c7 -25 0
-41 -14 -33 -12 8 -12 55 0 55 5 0 11 -10 14 -22z m466 -23 c2 -3 -42 -5 -99
-5 -86 0 -105 -3 -116 -17 -9 -14 -10 -21 -1 -33 11 -13 10 -13 -6 -1 -9 8
-15 16 -12 19 13 14 -56 32 -129 34 l-81 2 80 5 c89 7 356 3 364 -4z m2503
-77 c-2 -43 -7 -78 -11 -78 -4 0 -5 29 -3 65 3 41 0 70 -7 79 -9 11 -9 15 1
19 21 7 24 -4 20 -85z m-3755 63 c-16 -10 -46 -24 -67 -31 -22 -7 -37 -17 -34
-21 3 -5 -3 -9 -12 -9 -16 0 -16 -1 2 -15 17 -13 16 -13 -13 -3 -39 14 -42 24
-10 34 12 4 49 20 82 35 69 33 93 37 52 10z m335 -3 c-6 -6 -16 -7 -22 -3 -9
6 -9 9 1 16 17 10 34 0 21 -13z m48 19 c0 -2 -10 -12 -22 -23 l-23 -19 19 23
c18 21 26 27 26 19z m3480 -7 c0 -5 -5 -10 -10 -10 -6 0 -16 -12 -23 -27 -10
-25 -67 -88 -67 -76 0 3 13 22 29 42 15 20 33 46 40 59 12 22 31 30 31 12z
m-5583 -19 c-1 -15 -4 -17 -18 -8 -19 12 -16 27 6 27 8 0 13 -8 12 -19z m-670
-10 c10 -16 9 -20 -10 -25 -23 -6 -38 9 -30 31 7 19 26 16 40 -6z m4953 -16
c10 -12 10 -15 -4 -15 -9 0 -16 7 -16 15 0 8 2 15 4 15 2 0 9 -7 16 -15z
m-722 -19 c3 -15 1 -16 -17 -6 -12 6 -19 16 -15 21 9 15 28 5 32 -15z m-1747
-9 c-13 -13 -26 -3 -16 12 3 6 11 8 17 5 6 -4 6 -10 -1 -17z m-1981 -8 c25 -6
51 -14 59 -16 11 -3 12 -6 2 -16 -9 -9 -14 -9 -19 0 -4 6 -35 17 -70 24 l-62
13 -29 -31 c-15 -17 -31 -38 -34 -47 -4 -9 -14 -16 -23 -16 -17 0 -66 -14
-113 -32 -20 -8 -23 -14 -18 -46 l5 -37 -18 40 c-10 22 -15 43 -11 46 3 3 34
14 67 24 54 17 60 21 45 32 -14 11 -12 12 14 7 30 -5 48 7 94 61 14 18 27 17
111 -6z m4115 12 c7 -12 -12 -24 -25 -16 -11 7 -4 25 10 25 5 0 11 -4 15 -9z
m-1925 -4 c0 -2 -10 -12 -22 -23 l-23 -19 19 23 c18 21 26 27 26 19z m823 -66
c-2 -3 -18 10 -36 29 l-32 34 36 -30 c20 -16 34 -31 32 -33z m2107 45 c0 -8
-4 -17 -9 -20 -10 -7 -23 19 -14 28 11 11 23 6 23 -8z m381 -19 c-8 -8 -11 -7
-11 4 0 20 13 34 18 19 3 -7 -1 -17 -7 -23z m-5767 2 c-7 -11 -34 -12 -34 -1
0 14 11 21 26 15 8 -3 11 -9 8 -14z m2176 5 c0 -8 -5 -12 -10 -9 -6 4 -8 11
-5 16 9 14 15 11 15 -7z m-2723 -26 c-3 -8 -6 -5 -6 6 -1 11 2 17 5 13 3 -3 4
-12 1 -19z m234 -5 c13 -16 12 -17 -3 -4 -17 13 -22 21 -14 21 2 0 10 -8 17
-17z m2432 -11 c-4 -9 -13 -26 -21 -37 -12 -17 -14 -18 -8 -2 3 10 6 29 6 43
0 16 4 22 14 18 9 -3 12 -13 9 -22z m-1625 -1 c3 -10 0 -12 -12 -8 -10 4 -22
7 -27 7 -5 0 -9 4 -9 9 0 14 43 7 48 -8z m4534 -33 c-13 -13 -24 5 -16 27 7
16 8 16 17 0 6 -11 6 -20 -1 -27z m-5538 16 c4 -11 1 -14 -11 -12 -9 2 -18 9
-21 16 -6 18 25 15 32 -4z m2886 13 c0 -2 -10 -12 -22 -23 l-23 -19 19 23 c18
21 26 27 26 19z m995 -79 c44 -46 73 -77 66 -70 -8 6 -23 12 -33 12 -10 0 -18
7 -18 17 0 10 -23 41 -52 70 -29 29 -50 53 -47 53 2 0 40 -37 84 -82z m-2997
56 c-2 -1 -21 -15 -43 -29 l-40 -26 28 25 c15 14 27 30 27 35 0 6 7 8 15 4 9
-3 14 -7 13 -9z m184 -4 c12 -11 37 -25 55 -32 18 -7 33 -18 33 -25 0 -7 -7
-10 -15 -7 -8 4 -15 9 -15 13 0 4 -22 19 -50 32 -27 13 -49 27 -50 32 0 13 21
7 42 -13z m-812 -15 c13 -14 21 -25 18 -25 -2 0 -15 11 -28 25 -13 14 -21 25
-18 25 2 0 15 -11 28 -25z m4345 7 c6 -4 11 -36 12 -72 1 -66 0 -68 -12 -16
-4 18 -9 25 -13 19 -4 -7 -7 8 -7 33 0 45 2 49 20 36z m-4534 -30 c7 2 13 -3
14 -10 0 -15 26 -33 37 -26 4 3 8 1 8 -5 0 -5 24 -9 53 -8 l52 1 3 -72 c3 -66
5 -72 25 -73 21 0 21 -1 2 -9 -32 -14 -35 -12 -35 28 0 20 -3 54 -6 75 l-7 37
-56 0 c-54 0 -58 2 -101 47 -25 26 -35 40 -24 30 12 -10 27 -17 35 -15z m4733
22 c9 -3 14 -10 11 -14 -3 -5 5 -6 17 -2 19 4 21 3 11 -9 -9 -12 -6 -23 15
-54 57 -84 85 -116 99 -111 8 3 11 2 8 -3 -3 -5 -1 -12 4 -16 6 -3 8 -11 5
-19 -3 -7 4 -34 15 -59 27 -64 16 -60 -15 6 -14 28 -32 63 -39 75 -17 31 -112
149 -149 184 -28 28 -20 37 18 22z m1456 -15 c0 -5 -9 -9 -20 -9 -22 0 -27 16
-7 23 15 5 27 -1 27 -14z m-3079 -2 c-1 -12 -15 -9 -19 4 -3 6 1 10 8 8 6 -3
11 -8 11 -12z m-596 -64 c-10 -32 -19 -64 -22 -72 -2 -8 -6 -11 -10 -8 -3 4 4
38 18 76 28 84 38 87 14 4z m942 37 c-3 -12 1 -24 11 -30 10 -5 12 -10 5 -10
-7 0 -13 -6 -13 -12 0 -7 -11 -13 -25 -13 -17 0 -25 6 -25 17 0 9 -6 19 -12
21 -8 3 -6 6 5 6 9 1 17 6 17 12 0 6 7 9 15 5 9 -3 15 0 15 9 0 8 3 15 6 15 4
0 4 -9 1 -20z m2678 12 c-6 -5 -56 -23 -113 -41 -80 -25 -105 -37 -112 -54 -9
-22 -10 -20 -14 26 -1 7 16 15 39 19 22 3 72 18 110 32 72 26 107 33 90 18z
m-7385 -14 c0 -7 -5 -20 -10 -28 -8 -12 -10 -9 -10 13 0 15 5 27 10 27 6 0 10
-6 10 -12z m1535 -48 c33 -33 57 -60 54 -60 -2 0 -31 27 -64 60 -33 33 -57 60
-54 60 2 0 31 -27 64 -60z m2455 57 c0 -2 -10 -12 -22 -23 l-23 -19 19 23 c18
21 26 27 26 19z m-2017 -14 c-7 -2 -13 -11 -13 -18 0 -16 -27 -28 -35 -15 -6
9 33 40 50 39 5 0 4 -3 -2 -6z m4287 -18 c0 -18 -4 -23 -15 -19 -25 10 -19 33
13 43 1 1 2 -10 2 -24z m-6195 -5 c3 -6 -1 -7 -9 -4 -18 7 -21 14 -7 14 6 0
13 -4 16 -10z m48 -30 c3 -11 4 -20 3 -20 -2 0 -11 9 -21 20 -15 17 -16 20 -3
20 9 0 18 -9 21 -20z m1914 14 c-3 -3 -12 -4 -19 -1 -8 3 -5 6 6 6 11 1 17 -2
13 -5z m127 -60 c-17 -14 -18 -41 -1 -47 6 -3 3 -6 -8 -6 -14 -1 -16 -4 -7 -9
13 -9 112 8 112 19 0 9 49 -1 56 -12 3 -5 -9 -9 -26 -9 -38 0 -118 -18 -143
-31 -27 -15 -30 -7 -17 41 6 24 9 53 6 66 -8 32 26 53 35 21 4 -13 1 -27 -7
-33z m272 25 c38 -1 38 -2 9 -9 -51 -13 -78 -12 -72 4 3 7 0 20 -6 27 -7 7 -3
6 9 -4 11 -9 38 -18 60 -18z m4160 22 c27 -1 31 -4 31 -31 0 -16 -4 -30 -9
-30 -4 0 -8 9 -8 20 0 37 -61 39 -98 2 -10 -9 -29 -26 -42 -37 l-24 -20 15 20
c48 68 62 82 82 80 12 -1 36 -3 53 -4z m-6516 -50 c14 -6 36 -13 49 -16 28 -5
37 -12 27 -22 -4 -4 -11 -2 -15 6 -5 7 -11 12 -15 11 -17 -4 -74 14 -98 32
-16 11 -32 16 -38 13 -5 -3 -10 1 -10 10 0 14 5 13 38 -4 20 -10 48 -24 62
-30z m1776 24 c-16 -14 -38 -25 -49 -25 -26 0 -17 9 31 31 50 23 52 23 18 -6z
m77 -12 c-3 -18 -9 -33 -14 -33 -12 0 -11 14 3 45 14 32 17 29 11 -12z m651 2
c5 -13 2 -14 -17 -4 -32 17 -33 19 -10 19 12 0 23 -7 27 -15z m1326 11 c0 -2
-8 -10 -17 -17 -16 -13 -17 -12 -4 4 13 16 21 21 21 13z m1558 -14 c2 -7 -3
-12 -12 -12 -9 0 -16 7 -16 16 0 17 22 14 28 -4z m-3709 -8 c2 -2 -12 -4 -32
-4 -20 0 -40 0 -44 -1 -4 0 -9 4 -11 11 -3 7 10 8 40 4 23 -4 45 -8 47 -10z
m3446 -14 c10 -11 16 -20 13 -20 -3 0 -13 9 -23 20 -10 11 -16 20 -13 20 3 0
13 -9 23 -20z m624 -22 c1 -5 -9 -8 -21 -7 -13 0 -17 3 -10 6 6 2 12 14 13 26
0 21 1 21 9 2 5 -11 9 -23 9 -27z m1640 20 c0 -14 -15 -35 -37 -52 l-37 -30
33 35 c43 47 42 61 -5 57 l-38 -3 -6 -70 c-3 -38 -6 -66 -7 -61 -1 5 -14 -1
-29 -15 l-28 -24 28 31 c24 27 27 36 24 92 l-3 62 53 0 c49 0 53 -2 52 -22z
m-795 -6 c15 2 18 -5 20 -44 1 -27 -2 -48 -6 -48 -4 0 -8 18 -8 40 0 33 -3 40
-20 40 -12 0 -20 7 -20 18 0 13 2 14 9 4 4 -8 16 -12 25 -10z m492 -9 c-10
-10 -19 5 -10 18 6 11 8 11 12 0 2 -7 1 -15 -2 -18z m-5464 -53 c9 0 20 -5 24
-12 4 -7 3 -8 -4 -4 -23 14 -11 -11 18 -39 26 -25 30 -26 36 -10 4 10 2 26 -4
36 -7 11 -8 20 -2 24 18 11 27 -3 22 -35 -3 -21 0 -30 9 -30 9 0 7 -4 -4 -11
-18 -10 -18 -12 5 -37 12 -15 -11 5 -52 43 -41 39 -91 88 -110 110 l-34 40 40
-37 c22 -21 47 -38 56 -38z m5372 42 c0 -33 -16 -31 -20 1 -2 18 1 27 9 24 6
-2 11 -13 11 -25z m-3222 -8 c-3 -15 -10 -23 -17 -20 -7 2 -25 -9 -40 -24 -16
-16 -32 -27 -36 -24 -4 2 -6 -17 -4 -42 2 -26 0 -43 -5 -38 -10 10 -13 34 -11
85 1 33 3 35 29 32 20 -3 34 3 56 26 17 17 31 31 31 31 1 0 0 -12 -3 -26z
m-2062 6 c0 -5 -2 -10 -4 -10 -3 0 -8 5 -11 10 -3 6 -1 10 4 10 6 0 11 -4 11
-10z m140 1 c0 -4 20 -14 45 -21 25 -7 48 -17 51 -21 7 -12 1 -11 -33 2 -15 6
-39 12 -53 13 -24 2 -44 36 -21 36 6 0 11 -4 11 -9z m1824 -6 c3 -8 1 -15 -4
-15 -6 0 -10 7 -10 15 0 8 2 15 4 15 2 0 6 -7 10 -15z m-2204 -4 c0 -12 -28
-22 -34 -12 -3 5 -3 11 1 15 9 9 33 7 33 -3z m990 -7 c0 -9 -5 -14 -12 -12
-18 6 -21 28 -4 28 9 0 16 -7 16 -16z m2146 5 c10 -17 -13 -36 -27 -22 -12 12
-4 33 11 33 5 0 12 -5 16 -11z m1084 4 c-8 -3 -18 -10 -21 -16 -8 -12 -31 1
-24 14 4 5 18 9 33 8 16 0 21 -3 12 -6z m-3131 -35 c0 -28 -2 -30 -9 -13 -12
28 -12 45 0 45 6 0 10 -15 9 -32z m1525 -18 c-14 -14 -38 5 -30 26 6 16 8 16
23 1 11 -11 14 -20 7 -27z m1117 13 c13 -16 12 -17 -3 -4 -10 7 -18 15 -18 17
0 8 8 3 21 -13z m387 -12 c-25 -16 -53 -40 -63 -52 l-17 -24 7 25 c4 14 10 26
14 28 3 1 24 13 46 27 22 13 44 25 49 25 6 0 -11 -13 -36 -29z m-3825 13 c11
-11 -3 -24 -18 -18 -8 4 -12 10 -9 15 6 11 18 12 27 3z m4527 -9 c0 -8 -4 -15
-9 -15 -13 0 -22 16 -14 24 11 11 23 6 23 -9z m40 5 c0 -5 -7 -10 -16 -10 -8
0 -12 5 -9 10 3 6 10 10 16 10 5 0 9 -4 9 -10z m725 -71 c0 -41 -4 -69 -10
-69 -7 0 -9 24 -7 65 4 61 3 65 -17 65 -12 0 -20 4 -17 9 3 4 16 6 28 4 21 -4
23 -10 23 -74z m-2254 58 c-1 -12 -15 -9 -19 4 -3 6 1 10 8 8 6 -3 11 -8 11
-12z m1919 -4 c0 -10 18 -51 40 -90 28 -53 35 -73 25 -73 -8 0 -15 8 -15 18 0
9 -11 35 -24 57 -28 45 -34 39 -39 -40 -2 -32 -4 -16 -7 48 -4 73 -2 97 8 97
6 0 12 -8 12 -17z m680 -19 c0 -8 -4 -12 -10 -9 -5 3 -10 13 -10 21 0 8 5 12
10 9 6 -3 10 -13 10 -21z m-4990 12 c0 -2 -8 -10 -17 -17 -16 -13 -17 -12 -4
4 13 16 21 21 21 13z m3060 -17 c0 -5 -4 -9 -10 -9 -5 0 -10 7 -10 16 0 8 5
12 10 9 6 -3 10 -10 10 -16z m-190 -34 c19 -19 32 -35 29 -35 -3 0 -20 16 -39
35 -19 19 -32 35 -29 35 3 0 20 -16 39 -35z m-3440 10 c0 -8 5 -15 10 -15 6 0
10 -12 10 -27 0 -35 19 -69 21 -38 0 11 3 15 5 8 3 -7 1 -20 -5 -30 -8 -16
-12 -13 -26 20 -8 21 -13 43 -9 49 4 6 3 8 -3 5 -6 -4 -16 0 -23 8 -7 8 -29
16 -49 16 l-36 2 35 7 c56 12 70 11 70 -5z m529 -19 c-6 -13 -20 -27 -30 -29
-25 -7 -24 -2 8 28 34 31 35 31 22 1z m188 -8 c-3 -7 -5 -2 -5 12 0 14 2 19 5
13 2 -7 2 -19 0 -25z m4743 2 c0 -24 -4 -30 -22 -30 -20 0 -20 1 -5 18 10 10
17 24 17 30 0 7 2 12 5 12 3 0 5 -13 5 -30z m-4810 -11 c0 -5 -7 -9 -15 -9
-15 0 -20 12 -9 23 8 8 24 -1 24 -14z m-333 -11 c-2 -27 -17 -40 -32 -28 -6 5
-28 10 -50 13 -40 4 -40 4 8 5 34 2 47 6 47 17 0 8 7 15 15 15 9 0 14 -8 12
-22z m118 13 c27 -7 26 -8 -18 -12 -32 -3 -52 0 -59 8 -8 10 -4 13 18 12 16
-1 43 -5 59 -8z m3227 -13 c-3 -13 -8 -25 -12 -28 -4 -3 -17 -23 -29 -45 -22
-40 -22 -37 6 40 12 32 27 54 40 55 0 0 -1 -10 -5 -22z m1292 1 c-3 -5 -10 -7
-15 -3 -5 3 -7 10 -3 15 3 5 10 7 15 3 5 -3 7 -10 3 -15z m49 -5 c-4 -12 -8
-13 -14 -3 -9 15 -2 32 11 24 5 -3 6 -13 3 -21z m647 1 c0 -8 -4 -15 -9 -15
-13 0 -22 16 -14 24 11 11 23 6 23 -9z m-5534 -23 c-9 -9 -37 8 -31 18 5 8 11
7 21 -1 8 -6 12 -14 10 -17z m609 -31 c-12 -11 -24 16 -18 39 l7 25 7 -30 c5
-16 6 -31 4 -34z m3579 28 c-10 -16 -24 -9 -24 12 0 18 2 19 15 9 8 -7 12 -16
9 -21z m1066 13 c-25 -7 -60 -44 -53 -55 3 -6 1 -7 -5 -3 -7 4 -12 17 -12 30
0 16 9 24 33 32 17 5 36 8 42 5 5 -3 2 -7 -5 -9z m-5195 -2 c-3 -5 -10 -10
-16 -10 -5 0 -9 5 -9 10 0 6 7 10 16 10 8 0 12 -4 9 -10z m3335 -15 c13 -14
21 -25 18 -25 -2 0 -15 11 -28 25 -13 14 -21 25 -18 25 2 0 15 -11 28 -25z
m1537 -1 c-9 -9 -28 6 -21 18 4 6 10 6 17 -1 6 -6 8 -13 4 -17z m103 17 c0
-17 -18 -21 -24 -6 -3 9 0 15 9 15 8 0 15 -4 15 -9z m-5200 -46 c19 -19 32
-35 29 -35 -3 0 -20 16 -39 35 -19 19 -32 35 -29 35 3 0 20 -16 39 -35z m2130
15 c0 -5 -7 -10 -15 -10 -8 0 -15 5 -15 10 0 6 7 10 15 10 8 0 15 -4 15 -10z
m510 -5 c0 -8 -7 -15 -15 -15 -26 0 -18 20 13 29 1 1 2 -6 2 -14z m765 5 c-3
-5 -1 -10 6 -10 10 0 10 -3 1 -12 -8 -8 -15 -8 -27 2 -13 11 -13 15 -3 21 18
12 30 11 23 -1z m1117 -58 c0 -35 -2 -66 -6 -69 -8 -8 -9 9 -6 70 1 39 -1 46
-14 41 -11 -4 -16 -1 -16 11 0 11 7 15 21 13 19 -3 21 -9 21 -66z m-4052 43
c0 -9 -9 -15 -22 -15 -22 1 -23 1 -4 15 25 19 26 19 26 0z m1520 -14 c-5 -10
-6 -27 -3 -39 3 -15 1 -22 -8 -22 -10 0 -14 13 -14 43 0 37 3 43 17 39 13 -3
15 -9 8 -21z m3178 4 c0 -14 -5 -24 -10 -23 -5 2 -9 7 -9 11 1 4 1 14 1 22 0
8 4 15 9 15 5 0 9 -11 9 -25z m450 14 c-2 -6 -8 -10 -13 -10 -5 0 -11 4 -13
10 -2 6 4 11 13 11 9 0 15 -5 13 -11z m-5398 -20 c0 -5 -7 -9 -15 -9 -9 0 -12
6 -9 15 6 15 24 11 24 -6z m705 -46 c75 -18 82 -27 9 -14 -32 6 -53 6 -61 -1
-10 -8 -13 -6 -13 6 0 9 -11 21 -24 28 -14 6 -27 17 -30 25 -4 9 4 7 23 -7 17
-11 59 -28 96 -37z m3424 28 c-15 -5 -22 6 -14 19 6 9 10 9 16 -1 5 -8 4 -15
-2 -18z m115 16 c-3 -8 2 -20 11 -27 25 -21 17 -32 -11 -14 -14 10 -42 21 -62
25 -35 6 -35 7 -7 8 17 1 37 6 45 11 21 14 30 12 24 -3z m636 -7 c0 -5 -4 -10
-10 -10 -5 0 -10 5 -10 10 0 6 5 10 10 10 6 0 10 -4 10 -10z m609 -130 c4 0
16 -6 26 -14 17 -12 14 -13 -21 -7 -34 5 -39 10 -39 33 -1 15 3 24 9 21 5 -4
7 13 3 44 -3 28 -3 54 1 58 4 4 8 -25 10 -64 2 -39 6 -71 11 -71z m-854 108
c-16 -10 -16 -28 1 -120 3 -17 1 -28 -5 -28 -6 0 -11 19 -11 43 0 23 -4 57
-10 76 -11 41 -7 51 21 44 19 -5 20 -7 4 -15z m75 1 c0 -5 -12 -9 -27 -9 -26
0 -26 1 -8 14 20 14 35 12 35 -5z m-4809 -4 c1 -17 -18 -17 -25 0 -4 11 -1 15
10 13 8 -2 15 -7 15 -13z m140 -1 c35 6 40 4 35 -10 -3 -8 -7 -28 -7 -42 -1
-27 -1 -26 -8 3 -6 29 -9 30 -58 30 -29 1 -55 4 -59 8 -4 4 0 7 9 7 10 0 17 5
17 11 0 8 5 8 15 -1 10 -8 29 -10 56 -6z m5121 -19 c5 -26 -1 -32 -18 -15 -7
7 -17 3 -32 -10 -36 -34 -38 -22 -2 15 42 41 46 42 52 10z m-3302 -27 c0 -24
38 -32 129 -26 42 3 85 2 96 -2 12 -5 -36 -9 -113 -11 -122 -4 -132 -3 -132
14 0 11 -13 23 -32 32 l-33 13 42 -1 c33 -2 43 -6 43 -19z m1560 0 c0 -16 -3
-19 -11 -11 -6 6 -8 16 -5 22 11 17 16 13 16 -11z m1465 -14 c1 -11 5 -32 9
-49 6 -29 6 -29 -5 -5 -6 14 -16 36 -22 50 -6 14 -13 29 -15 34 -3 5 3 4 13
-2 10 -5 19 -18 20 -28z m400 8 c-2 -3 -12 -1 -22 2 -15 6 -15 9 -3 16 13 8
35 -8 25 -18z m-4471 3 c4 -13 2 -14 -14 -5 -23 13 -26 20 -6 20 8 0 16 -7 20
-15z m1341 5 c11 -5 14 -9 7 -9 -7 -1 -16 -10 -20 -21 -10 -26 -33 -11 -25 18
6 24 8 25 38 12z m127 -30 c27 0 21 -5 -14 -14 -22 -5 -28 -3 -28 10 0 9 -10
19 -22 22 -21 6 -21 7 7 12 24 4 31 2 33 -12 2 -11 12 -18 24 -18z m2508 21
c0 -13 -12 -20 -25 -14 -8 2 -11 11 -9 18 6 14 34 10 34 -4z m-2425 -58 c-2
-26 -8 -39 -19 -41 -19 -4 -20 2 -3 29 10 17 9 22 -6 34 -18 13 -18 13 0 17
27 7 30 2 28 -39z m2699 32 c-4 -8 -10 -15 -14 -15 -35 0 -95 -123 -91 -187 0
-13 -5 -23 -13 -23 -8 0 -13 11 -13 25 0 13 3 23 7 20 7 -4 29 80 31 113 0 13
74 75 96 81 1 1 0 -6 -3 -14z m-4989 -35 c-4 -6 -13 -9 -21 -6 -20 8 -82 -51
-93 -88 -9 -30 -9 -30 -10 -5 -1 31 65 109 92 109 9 0 17 5 17 12 0 9 3 9 11
1 6 -6 8 -16 4 -23z m3350 -10 c-3 -5 -12 -7 -20 -4 -12 5 -12 10 -4 27 10 18
12 19 21 4 5 -10 6 -21 3 -27z m1775 30 c0 -5 -7 -10 -15 -10 -8 0 -15 5 -15
10 0 6 7 10 15 10 8 0 15 -4 15 -10z m-4799 -26 c10 -13 10 -17 -1 -24 -26
-16 -54 12 -33 33 10 11 19 8 34 -9z m2394 -4 c8 -14 -7 -35 -26 -36 -18 -1
-20 26 -4 38 14 10 23 10 30 -2z m-475 -19 c0 -6 -4 -12 -10 -16 -6 -3 -5 -16
3 -32 14 -30 102 -123 118 -123 6 0 9 -8 8 -17 -3 -37 1 -45 21 -40 15 4 20 0
20 -13 0 -11 -4 -22 -10 -25 -5 -3 -10 1 -10 10 0 12 -6 15 -20 10 -17 -5 -20
-2 -20 26 0 26 -12 43 -65 96 -55 54 -65 70 -65 99 0 24 5 34 15 34 8 0 15 -4
15 -9z m1000 -1 c0 -5 -6 -13 -12 -17 -7 -5 -29 -25 -48 -46 l-35 -38 -6 -182
-5 -182 -2 187 c-2 169 0 188 16 197 9 5 31 27 47 50 29 40 45 51 45 31z
m2068 -1 c-2 -6 -8 -10 -13 -10 -5 0 -11 4 -13 10 -2 6 4 11 13 11 9 0 15 -5
13 -11z m255 -12 c47 -12 56 -20 36 -32 -5 -4 -18 0 -28 9 -10 9 -24 16 -32
16 -8 1 -25 8 -39 16 -17 11 -19 13 -5 9 11 -4 41 -12 68 -18z m-729 -20 c4
-19 3 -26 -4 -22 -5 3 -10 18 -10 32 0 32 5 28 14 -10z m-190 -32 c10 -24 28
-60 42 -80 28 -42 29 -45 10 -45 -7 0 -16 12 -19 28 -3 15 -22 51 -42 80 -40
61 -40 62 -21 62 7 0 21 -20 30 -45z m550 29 c20 -19 20 -28 2 -21 -8 3 -16 1
-18 -4 -6 -19 -36 2 -31 22 6 23 26 25 47 3z m491 7 c7 -13 102 -57 140 -66
l30 -7 -29 -11 c-23 -8 -32 -7 -40 5 -15 20 -94 60 -106 53 -5 -3 -11 -1 -15
5 -3 5 -16 10 -28 11 -20 1 -20 2 3 9 35 11 38 11 45 1z m-5095 -32 c0 -5 -7
-9 -15 -9 -15 0 -20 12 -9 23 8 8 24 -1 24 -14z m373 -29 c48 -7 87 -16 87
-22 0 -5 21 -18 48 -30 59 -26 57 -24 42 -43 -7 -8 -16 -30 -20 -48 l-8 -32
-2 40 c-1 22 -2 43 -1 47 3 21 -86 62 -159 73 -117 18 -125 20 -128 37 -3 15
0 16 25 4 15 -8 67 -19 116 -26z m-969 -11 c-8 -14 -24 -10 -24 6 0 9 6 12 15
9 8 -4 12 -10 9 -15z m5328 -4 c0 -5 -5 -11 -11 -13 -6 -2 -11 4 -11 13 0 9 5
15 11 13 6 -2 11 -8 11 -13z m565 -11 c-9 -9 -28 6 -21 18 4 6 10 6 17 -1 6
-6 8 -13 4 -17z m-6010 -16 c-3 -7 -5 -2 -5 12 0 14 2 19 5 13 2 -7 2 -19 0
-25z m6225 12 c13 -12 39 -35 58 -51 33 -30 33 -29 -15 3 -27 19 -58 38 -67
41 -19 7 -25 27 -8 27 5 0 20 -9 32 -20z m-1338 -5 c3 -9 0 -15 -9 -15 -8 0
-15 7 -15 15 0 8 4 15 9 15 5 0 11 -7 15 -15z m306 -15 c0 -5 -9 -10 -21 -10
-11 0 -17 5 -14 10 3 6 13 10 21 10 8 0 14 -4 14 -10z m857 -42 c-20 -13 -27
-9 -27 12 0 18 3 19 20 8 14 -9 16 -14 7 -20z m-257 -30 c0 -16 -3 -19 -11
-11 -6 6 -8 16 -5 22 11 17 16 13 16 -11z m440 1 c0 -5 -9 -9 -20 -9 -22 0
-27 16 -7 23 15 5 27 -1 27 -14z m-6207 -29 c4 -15 0 -20 -13 -20 -24 0 -30
11 -23 38 4 17 9 20 18 12 7 -6 15 -20 18 -30z m5042 30 c-3 -5 -10 -10 -16
-10 -5 0 -9 5 -9 10 0 6 7 10 16 10 8 0 12 -4 9 -10z m125 -5 c0 -8 0 -18 1
-22 0 -4 -4 -9 -9 -11 -5 -1 -9 9 -9 23 0 14 3 25 8 25 5 0 9 -7 9 -15z m153
4 c-6 -6 -9 -18 -6 -25 7 -18 -52 -20 -63 -2 -5 7 -3 8 6 3 10 -6 12 -4 7 9
-4 9 -3 15 2 11 5 -3 20 -1 33 4 31 13 34 13 21 0z m267 -20 c-43 -6 -69 -14
-77 -26 -7 -9 -13 -11 -13 -5 0 7 8 20 18 30 13 13 29 16 77 13 l60 -5 -65 -7z
m128 14 c-10 -2 -26 -2 -35 0 -10 3 -2 5 17 5 19 0 27 -2 18 -5z m-5458 -19
c0 -17 -22 -14 -28 4 -2 7 3 12 12 12 9 0 16 -7 16 -16z m6160 -1 c0 -7 -14
-9 -42 -6 -63 8 -69 22 -9 20 31 -1 51 -7 51 -14z m-1500 -18 c13 -8 3 -25
-13 -25 -7 0 -18 9 -24 19 -11 17 -10 19 7 16 11 -2 25 -7 30 -10z m-4857 -30
l4 -26 -23 22 c-17 16 -21 25 -12 30 17 11 25 4 31 -26z m4977 15 c12 -8 9
-10 -13 -10 -16 0 -26 4 -22 10 8 12 16 12 35 0z m730 0 c0 -5 -5 -10 -11 -10
-5 0 -7 5 -4 10 3 6 8 10 11 10 2 0 4 -4 4 -10z m85 -1 c10 -15 2 -19 -24 -12
-17 4 -19 8 -9 14 18 12 26 11 33 -2z m-5345 -20 c0 -5 8 -9 18 -10 14 0 14
-2 -3 -8 -11 -4 -23 -19 -26 -32 l-7 -24 -1 24 c-1 17 -5 21 -17 17 -9 -4 -13
-2 -8 5 4 6 0 15 -7 20 -11 7 -10 9 4 9 9 0 17 4 17 10 0 5 7 7 15 4 8 -4 15
-10 15 -15z m5511 -9 c8 -21 20 -32 42 -38 l32 -9 -32 -5 c-22 -3 -33 0 -33 7
0 7 -9 24 -20 37 -10 14 -16 28 -13 32 11 10 14 7 24 -24z m229 21 c0 -5 9
-13 21 -16 11 -4 18 -9 16 -11 -2 -3 -16 1 -30 7 -21 10 -30 9 -43 -2 -16 -13
-16 -12 -3 9 14 22 39 30 39 13z m-1099 -11 c16 0 29 -4 29 -10 0 -14 -30 -12
-65 6 -16 8 -22 12 -12 9 10 -3 32 -5 48 -5z m349 6 c0 -3 -4 -8 -10 -11 -5
-3 -10 -1 -10 4 0 6 5 11 10 11 6 0 10 -2 10 -4z m450 -11 c-12 -15 -30 -12
-30 6 0 5 10 9 21 9 18 0 19 -2 9 -15z m-4749 -28 c-8 -8 -11 -7 -11 4 0 20
13 34 18 19 3 -7 -1 -17 -7 -23z m4544 3 c1 -11 -4 -20 -12 -20 -13 0 -18 31
-6 43 9 10 16 0 18 -23z m49 21 c3 -5 0 -11 -8 -14 -15 -6 -26 1 -26 15 0 11
27 10 34 -1z m-2734 -5 c0 -2 -8 -10 -17 -17 -16 -13 -17 -12 -4 4 13 16 21
21 21 13z m2520 -6 c0 -5 -4 -10 -10 -10 -5 0 -10 5 -10 10 0 6 5 10 10 10 6
0 10 -4 10 -10z m115 -10 c14 -16 15 -20 4 -20 -16 0 -39 19 -39 32 0 14 16 9
35 -12z m-3077 -8 c2 -7 -2 -10 -12 -6 -9 3 -16 11 -16 16 0 13 23 5 28 -10z
m2855 -2 c-5 -20 -15 -25 -26 -13 -8 7 11 33 23 33 5 0 6 -9 3 -20z m405 2 c2
-7 -3 -12 -12 -12 -9 0 -16 7 -16 16 0 17 22 14 28 -4z m470 -36 c4 -41 8 -43
42 -20 21 14 20 11 -5 -13 -35 -35 -45 -33 -45 9 0 19 -9 41 -22 55 l-22 24
24 -9 c19 -7 26 -17 28 -46z m-6214 -39 c4 -47 5 -49 16 -42 5 3 7 0 5 -7 -8
-19 72 -47 107 -37 26 7 27 6 17 -13 -13 -25 -4 -98 16 -124 18 -24 19 -44 2
-44 -8 0 -19 22 -26 53 -22 92 -29 102 -82 125 -27 12 -53 22 -58 22 -5 0 -11
23 -13 50 -3 28 -12 58 -22 68 -9 10 -16 23 -16 28 0 24 52 -51 54 -79z m664
72 c-2 -6 -8 -10 -13 -10 -5 0 -11 4 -13 10 -2 6 4 11 13 11 9 0 15 -5 13 -11z
m4585 4 c-7 -2 -19 -2 -25 0 -7 3 -2 5 12 5 14 0 19 -2 13 -5z m-1908 -13 c6
-1 -1 -5 -15 -9 -15 -4 -24 -14 -22 -23 1 -9 -5 -19 -14 -22 -12 -5 -15 -2
-10 10 3 8 6 24 6 33 0 17 12 19 55 11z m2703 -1 c-2 -6 -7 -10 -11 -10 -4 1
-17 1 -29 2 -22 1 -22 1 2 9 36 11 42 11 38 -1z m277 2 c3 -6 -4 -15 -15 -21
-20 -11 -21 -10 -10 9 12 23 16 25 25 12z m-5424 -34 c-13 -13 -26 -3 -16 12
3 6 11 8 17 5 6 -4 6 -10 -1 -17z m1473 -8 c-3 -5 -14 -9 -25 -9 -17 0 -19 -7
-19 -80 0 -44 -3 -80 -7 -80 -5 0 -8 41 -8 90 0 79 2 90 18 90 9 0 17 5 17 11
0 8 5 8 15 -1 8 -7 12 -16 9 -21z m-1717 -11 c-3 -8 -6 -5 -6 6 -1 11 2 17 5
13 3 -3 4 -12 1 -19z m2773 13 c0 -16 -28 -20 -34 -5 -4 9 1 14 14 14 11 0 20
-4 20 -9z m2025 -1 c11 10 12 7 2 -13 -9 -20 -19 -24 -52 -24 -22 0 -53 -3
-68 -7 -21 -5 -28 -3 -25 6 3 8 26 14 61 16 45 2 57 6 58 20 0 11 2 12 6 4 4
-10 8 -10 18 -2z m406 -10 c16 0 29 -3 29 -7 0 -5 -20 -8 -45 -8 -31 0 -45 4
-45 14 0 8 6 11 16 7 9 -3 29 -6 45 -6z m-4833 -30 c-5 -17 -14 -33 -19 -36
-8 -5 4 37 17 57 11 19 12 8 2 -21z m1832 20 c0 -5 -9 -10 -21 -10 -11 0 -17
5 -14 10 3 6 13 10 21 10 8 0 14 -4 14 -10z m-4750 -9 c0 -5 -7 -12 -16 -15
-24 -9 -28 -7 -14 9 14 17 30 20 30 6z m8329 -7 c2 -2 -5 -4 -17 -4 -24 0 -30
-25 -8 -33 15 -6 19 -57 5 -57 -5 0 -9 6 -9 14 0 8 -5 16 -11 18 -6 2 -13 21
-15 41 -3 36 -2 37 24 31 15 -4 29 -8 31 -10z m46 -59 c0 -71 -1 -75 -22 -75
-13 0 -23 5 -23 10 0 6 7 10 15 10 12 0 15 13 15 55 0 37 -4 55 -12 55 -9 0
-8 4 2 10 8 5 17 10 20 10 3 0 5 -34 5 -75z m-3100 22 c-8 -20 -15 -53 -16
-74 l-1 -38 -9 44 c-6 33 -5 47 6 57 7 8 17 23 20 35 4 11 9 19 11 16 2 -2 -3
-20 -11 -40z m2269 12 c-10 -16 -24 -9 -24 12 0 18 2 19 15 9 8 -7 12 -16 9
-21z m-413 8 c-1 -12 -15 -9 -19 4 -3 6 1 10 8 8 6 -3 11 -8 11 -12z m-1991
-6 c0 -16 -22 -24 -30 -11 -6 9 -13 7 -29 -9 -11 -11 -23 -21 -26 -21 -10 0
-5 26 7 38 14 14 78 16 78 3z m2460 -6 c0 -9 9 -15 21 -15 12 0 19 -5 17 -12
-3 -7 -15 -12 -29 -12 -19 0 -24 5 -26 27 -1 15 2 27 8 27 5 0 9 -7 9 -15z
m167 -7 c-3 -8 -6 -5 -6 6 -1 11 2 17 5 13 3 -3 4 -12 1 -19z m911 -5 c-8 -10
-14 -11 -16 -4 -2 6 -12 11 -23 11 -16 0 -18 -5 -13 -26 6 -23 4 -25 -17 -22
-17 2 -25 -3 -30 -22 -6 -22 -7 -20 -8 12 -1 31 2 35 19 31 15 -4 20 0 20 15
0 16 7 22 33 24 42 4 51 0 35 -19z m-8729 14 c-2 -1 -13 -9 -24 -17 -19 -14
-19 -14 -6 3 7 9 18 17 24 17 6 0 8 -1 6 -3z m2326 -7 c11 -17 -5 -32 -21 -19
-7 6 -11 15 -8 20 7 12 21 11 29 -1z m-2105 -29 l35 -19 -34 3 c-19 1 -38 10
-43 19 -12 21 -2 20 42 -3z m6944 4 c-4 -8 -11 -12 -16 -9 -6 4 -5 10 3 15 19
12 19 11 13 -6z m-7233 -16 c-26 -22 -26 -23 9 -39 l25 -11 -25 7 c-14 3 -33
6 -42 5 -27 0 -21 15 15 38 40 26 49 26 18 0z m3008 4 c0 -10 -4 -27 -9 -38
-7 -16 -9 -13 -9 18 -1 20 4 37 9 37 6 0 10 -8 9 -17z m4531 -3 c0 -5 -2 -10
-4 -10 -3 0 -8 5 -11 10 -3 6 -1 10 4 10 6 0 11 -4 11 -10z m-2422 -30 c-2 -6
-8 -6 -18 0 -13 9 -13 11 0 20 15 10 25 0 18 -20z m59 -17 c-3 -10 -5 -2 -5
17 0 19 2 27 5 18 2 -10 2 -26 0 -35z m2744 37 c5 0 9 -9 9 -20 0 -14 6 -20
16 -18 10 2 19 -2 21 -9 3 -8 -6 -11 -24 -9 -16 2 -29 10 -31 20 -2 9 -10 16
-18 16 -8 0 -14 7 -14 16 0 11 5 14 16 10 9 -3 20 -6 25 -6z m549 -5 c0 -8 -4
-15 -10 -15 -5 0 -10 7 -10 15 0 8 5 15 10 15 6 0 10 -7 10 -15z m306 -22
c-11 -11 -19 6 -11 24 8 17 8 17 12 0 3 -10 2 -21 -1 -24z m-3536 12 c0 -8 -4
-15 -10 -15 -5 0 -10 7 -10 15 0 8 5 15 10 15 6 0 10 -7 10 -15z m-4827 -25
c4 -16 2 -17 -14 -7 -26 16 -32 36 -9 30 10 -3 20 -13 23 -23z m4637 4 c0 -14
-5 -24 -11 -22 -6 2 -10 7 -10 11 1 4 1 14 1 22 0 8 5 15 10 15 6 0 10 -12 10
-26z m2174 4 c-9 -30 -10 -31 -24 -23 -8 5 -6 13 6 26 22 25 27 24 18 -3z
m375 8 c9 -10 8 -15 -4 -20 -10 -4 -15 1 -15 14 0 24 4 25 19 6z m-7332 -18
c-3 -8 -6 -5 -6 6 -1 11 2 17 5 13 3 -3 4 -12 1 -19z m-186 -13 c19 -8 27 -14
19 -14 -14 0 -72 28 -59 29 4 0 22 -7 40 -15z m4639 5 c0 -5 -4 -10 -10 -10
-5 0 -10 5 -10 10 0 6 5 10 10 10 6 0 10 -4 10 -10z m274 -1 c-8 -14 -9 -137
-1 -146 14 -13 -5 -21 -38 -16 -29 5 -36 2 -43 -16 -7 -21 -8 -21 -24 -1 -16
18 -16 20 5 35 13 9 23 11 25 5 2 -5 15 -10 28 -10 23 0 24 2 24 80 0 66 3 80
16 80 9 0 12 -5 8 -11z m506 -8 c0 -6 -4 -13 -10 -16 -5 -3 -10 1 -10 9 0 9 5
16 10 16 6 0 10 -4 10 -9z m80 -1 c0 -5 -7 -10 -16 -10 -8 0 -12 5 -9 10 3 6
10 10 16 10 5 0 9 -4 9 -10z m1913 -31 c-3 -10 -11 -19 -18 -19 -7 0 -15 -3
-18 -7 -2 -5 -2 -2 -1 5 2 6 -4 12 -14 13 -10 0 -12 3 -4 6 6 2 12 13 12 24 0
16 3 17 24 8 16 -8 22 -17 19 -30z m1284 4 c-3 -3 -14 0 -24 6 -17 10 -17 10
0 11 9 0 18 6 18 13 1 6 3 4 6 -6 3 -10 2 -21 0 -24z m-8623 11 c4 -11 1 -14
-11 -12 -9 2 -18 9 -21 16 -6 18 25 15 32 -4z m4221 -18 c-6 -27 -3 -34 13
-38 17 -5 18 -12 14 -62 -4 -49 -2 -60 17 -77 11 -11 21 -24 21 -30 0 -5 6 -9
13 -8 27 3 48 -1 43 -10 -3 -5 -22 -9 -41 -8 -30 1 -35 4 -33 21 2 15 -3 21
-17 21 -18 0 -20 6 -17 62 3 53 1 62 -15 65 -13 2 -18 12 -18 38 0 28 -4 34
-17 32 -11 -2 -18 3 -18 13 0 10 10 15 30 15 30 0 31 -1 25 -34z m815 24 c0
-17 -5 -25 -15 -25 -13 0 -95 -69 -95 -79 0 -4 16 -6 37 -4 20 2 38 -1 40 -7
2 -6 -21 -10 -57 -10 -33 0 -60 2 -60 5 0 3 16 16 34 30 19 14 49 41 68 61 34
38 48 46 48 29z m145 0 c3 -6 -1 -13 -9 -16 -9 -3 -13 -10 -10 -15 3 -5 0 -9
-5 -9 -6 0 -11 4 -11 9 0 5 -3 16 -6 25 -4 11 0 16 14 16 12 0 24 -5 27 -10z
m3377 -5 c0 -5 -5 -11 -11 -13 -6 -2 -11 4 -11 13 0 9 5 15 11 13 6 -2 11 -8
11 -13z m-3325 -21 c-9 -9 -28 6 -21 18 4 6 10 6 17 -1 6 -6 8 -13 4 -17z
m1681 19 c-21 -5 -27 -23 -37 -115 -7 -55 -6 -76 4 -83 8 -7 9 -18 3 -34 -4
-13 -6 -33 -2 -45 3 -12 -5 -4 -20 17 -19 27 -24 43 -17 55 8 15 32 172 30
190 -3 18 3 22 29 21 16 -1 20 -3 10 -6z m960 -38 c-2 -14 3 -20 16 -20 11 0
21 -6 24 -14 3 -10 0 -12 -12 -8 -10 4 -24 7 -32 7 -8 0 -14 10 -14 22 0 12
-7 29 -16 39 -16 17 -15 18 10 6 17 -8 25 -19 24 -32z m-2528 9 c0 -8 -5 -12
-10 -9 -6 4 -8 11 -5 16 9 14 15 11 15 -7z m-5207 -11 c-6 -14 -33 -18 -33 -5
0 12 8 19 24 19 8 0 12 -6 9 -14z m2134 -31 c-12 -11 -18 -12 -35 -1 l-21 13
22 11 c30 16 55 -1 34 -23z m553 18 c0 -11 -4 -20 -9 -20 -5 0 -7 9 -4 20 3
11 7 20 9 20 2 0 4 -9 4 -20z m4851 -5 c1 -17 -18 -17 -25 0 -4 11 -1 15 10
13 8 -2 15 -7 15 -13z m-7434 -1 c-3 -3 -12 -4 -19 -1 -8 3 -5 6 6 6 11 1 17
-2 13 -5z m2263 -10 c0 -17 -14 -18 -28 -1 -8 10 -6 13 9 14 10 1 19 -5 19
-13z m4610 -9 c0 -8 -6 -12 -14 -9 -8 3 -12 12 -9 20 6 17 23 9 23 -11z m270
21 c0 -3 -4 -8 -10 -11 -5 -3 -10 -1 -10 4 0 6 5 11 10 11 6 0 10 -2 10 -4z
m-7060 -16 c0 -5 -4 -10 -9 -10 -6 0 -13 5 -16 10 -3 6 1 10 9 10 9 0 16 -4
16 -10z m4380 -5 c0 -8 -4 -15 -9 -15 -5 0 -14 7 -21 15 -10 13 -9 15 9 15 12
0 21 -6 21 -15z m73 0 c-3 -9 -8 -14 -10 -11 -3 3 -2 9 2 15 9 16 15 13 8 -4z
m297 7 c0 -13 -12 -22 -22 -16 -10 6 -1 24 13 24 5 0 9 -4 9 -8z m86 -38 c-3
-8 -10 -14 -16 -14 -7 0 -8 6 -2 18 5 9 7 24 5 32 -3 9 0 8 7 -3 7 -10 9 -25
6 -33z m-2481 26 c3 -5 0 -10 -8 -10 -8 0 -22 -18 -32 -40 -10 -22 -20 -39
-22 -37 -6 7 38 97 47 97 5 0 12 -4 15 -10z m115 -15 c0 -8 -4 -15 -9 -15 -13
0 -22 16 -14 24 11 11 23 6 23 -9z m5150 0 c0 -8 -4 -15 -10 -15 -5 0 -10 7
-10 15 0 8 5 15 10 15 6 0 10 -7 10 -15z m-447 -56 c3 -12 0 -16 -9 -12 -8 3
-14 1 -14 -4 0 -4 -8 -13 -18 -19 -18 -11 -19 -7 -13 48 2 15 50 3 54 -13z
m-5502 -87 c-5 -43 -8 -87 -5 -98 4 -15 0 -20 -15 -20 -13 0 -17 4 -11 11 5 6
15 56 22 110 6 54 14 93 16 87 2 -7 -1 -48 -7 -90z m569 25 c-1 -14 -39 52
-40 68 0 6 9 -5 20 -23 11 -18 20 -38 20 -45z m2500 47 c0 -24 -17 -24 -28 0
-9 21 -8 23 9 19 10 -3 19 -11 19 -19z m1940 5 c0 -5 -7 -9 -15 -9 -8 0 -15 7
-15 15 0 9 6 12 15 9 8 -4 15 -10 15 -15z m-2513 -18 c-3 -14 -1 -18 9 -14 18
6 18 -14 1 -30 -18 -17 -35 -19 -59 -6 -17 9 -18 13 -7 21 12 8 12 10 0 15
-12 5 6 15 58 32 2 0 1 -8 -2 -18z m610 -23 c-12 -24 -23 -45 -24 -47 -5 -7
-10 2 -17 29 -6 18 -5 21 3 10 5 -8 12 -12 13 -10 2 3 12 17 21 33 26 41 28
33 4 -15z m-2502 -8 c-8 -16 -15 -36 -15 -45 0 -9 -6 -15 -12 -12 -7 2 -25
-17 -40 -42 -15 -25 -28 -42 -28 -37 0 10 59 108 70 116 4 3 12 15 19 28 6 12
14 22 17 22 2 0 -2 -13 -11 -30z m5342 -12 c-3 -7 -5 -2 -5 12 0 14 2 19 5 13
2 -7 2 -19 0 -25z m-199 0 c-2 -7 -7 -16 -12 -20 -11 -7 -36 14 -29 25 7 12
43 8 41 -5z m-2988 -13 c0 -9 -9 -15 -25 -15 -24 0 -32 10 -18 23 12 13 43 7
43 -8z m2490 -2 c0 -7 -6 -13 -14 -13 -8 0 -16 6 -19 13 -3 8 3 13 14 13 11 0
19 -6 19 -13z m-200 -54 c0 -5 -7 -9 -15 -9 -9 0 -12 6 -9 15 6 15 24 11 24
-6z m-2380 4 c0 -11 -61 -75 -66 -70 -9 8 8 37 22 37 7 0 18 9 24 20 11 20 20
26 20 13z m2890 -14 c0 -5 -7 -9 -15 -9 -9 0 -12 6 -9 15 6 15 24 11 24 -6z
m390 -30 c0 -11 -4 -18 -8 -15 -5 3 -16 -4 -25 -15 -20 -23 -57 -25 -57 -3 0
11 5 14 16 10 18 -7 57 11 49 24 -4 7 3 13 23 19 1 1 2 -8 2 -20z m-3580 6 c0
-24 -13 -32 -36 -21 -32 15 -30 23 6 24 17 0 30 -1 30 -3z m2878 -7 c53 -1 51
-2 -23 -8 -44 -4 -82 -5 -85 -3 -8 7 25 23 38 18 8 -3 39 -6 70 -7z m152 -4
c0 -11 -5 -14 -16 -10 -9 3 -28 7 -42 7 -27 1 -27 1 3 9 47 12 55 11 55 -6z
m-480 -15 c0 -5 -4 -9 -10 -9 -5 0 -10 7 -10 16 0 8 5 12 10 9 6 -3 10 -10 10
-16z m-2453 -25 c-3 -4 -14 -3 -24 0 -15 6 -15 8 -3 16 16 10 39 -4 27 -16z
m-2237 -4 c-12 -23 -30 -27 -30 -6 0 8 8 17 18 19 9 3 18 5 20 6 1 0 -2 -8 -8
-19z m6287 3 c2 -6 -16 -8 -49 -5 l-52 5 18 -29 c10 -16 27 -37 38 -47 17 -14
18 -20 8 -32 -7 -9 -15 -13 -18 -10 -3 3 -14 -2 -24 -12 -10 -9 -21 -13 -25
-10 -3 4 -2 7 4 7 6 0 18 12 28 26 16 25 16 26 -19 69 -20 24 -36 45 -36 47 0
8 124 0 127 -9z m-4069 -70 c22 -5 28 -14 16 -26 -4 -3 -25 9 -48 27 -22 18
-49 36 -58 39 -10 4 -15 12 -12 21 4 11 14 6 42 -20 20 -19 47 -37 60 -41z
m144 50 c-9 -17 -100 -58 -109 -49 -2 2 12 9 31 16 37 12 46 25 24 33 -7 2 -3
3 8 1 12 -2 27 3 34 11 17 20 24 12 12 -12z m2347 13 c9 -10 8 -15 -4 -20 -10
-4 -15 1 -15 14 0 24 4 25 19 6z m-5004 -21 c0 -14 -3 -25 -7 -25 -5 0 -8 -43
-8 -95 0 -92 -1 -97 -27 -119 -23 -20 -25 -26 -15 -39 11 -12 10 -15 -5 -13
-20 1 -36 18 -25 26 4 3 20 20 36 39 27 34 28 38 24 133 -2 79 0 101 12 108 8
5 15 10 15 10 0 0 0 -11 0 -25z m555 10 c0 -9 -9 -15 -21 -15 -18 0 -19 2 -9
15 7 8 16 15 21 15 5 0 9 -7 9 -15z m4578 4 c-2 -6 -7 -10 -11 -10 -4 1 -28 2
-54 3 l-48 1 50 7 c28 4 54 8 58 8 5 1 7 -3 5 -9z m1482 -19 c0 -5 -2 -10 -4
-10 -3 0 -8 5 -11 10 -3 6 -1 10 4 10 6 0 11 -4 11 -10z m-1078 -14 c3 2 8 -2
11 -11 10 -24 -21 -18 -34 8 -11 19 -10 20 3 10 8 -7 17 -10 20 -7z m403 -24
c-6 -4 -16 -18 -22 -32 -10 -25 -11 -25 -8 6 3 42 14 59 29 44 7 -7 7 -13 1
-18z m-340 -12 c8 -13 -5 -13 -25 0 -13 8 -13 10 2 10 9 0 20 -4 23 -10z m244
-38 c0 -16 -3 -21 -6 -12 -3 8 -10 18 -16 21 -12 8 1 31 14 24 5 -4 9 -18 8
-33z m851 31 c0 -5 -11 -13 -24 -19 -23 -11 -24 -10 -13 7 12 19 37 26 37 12z
m-991 -45 c25 -23 49 -54 54 -68 4 -14 17 -36 28 -49 17 -21 24 -23 38 -14 17
11 17 9 7 -13 -13 -28 -21 -30 -30 -9 -3 8 -12 15 -21 15 -8 0 -15 8 -15 19 0
26 -63 106 -108 136 -26 18 -31 25 -18 25 10 0 40 -19 65 -42z m-5279 28 c0
-2 -8 -10 -17 -17 -16 -13 -17 -12 -4 4 13 16 21 21 21 13z m5465 -65 c-7 -22
-11 -42 -7 -46 7 -6 -16 -25 -31 -25 -10 0 2 43 14 50 4 3 12 18 18 33 16 42
22 32 6 -12z m661 -56 c-83 -81 -89 -85 -129 -83 l-42 1 37 4 c37 4 94 48 182
140 17 17 33 30 35 27 3 -2 -35 -43 -83 -89z m-6181 75 c-3 -5 -12 -10 -18
-10 -7 0 -6 4 3 10 19 12 23 12 15 0z m-215 -4 c0 -3 -4 -8 -10 -11 -5 -3 -10
-1 -10 4 0 6 5 11 10 11 6 0 10 -2 10 -4z m6320 1 c0 -2 -10 -12 -22 -23 l-23
-19 19 23 c18 21 26 27 26 19z m-6146 -32 c-4 -8 -12 -15 -19 -15 -8 0 -34
-24 -59 -52 -36 -42 -46 -48 -46 -32 0 12 10 25 23 31 13 6 36 27 53 46 30 36
58 49 48 22z m6039 -89 c-37 -35 -37 -35 -13 -37 20 -1 19 -3 -10 -9 -19 -5
-36 -7 -38 -5 -2 1 15 22 37 46 23 24 41 48 41 54 0 5 5 4 11 -2 8 -8 0 -21
-28 -47z m-6330 -74 c12 -6 8 -22 -7 -22 -7 0 -16 12 -19 28 -3 15 -8 36 -12
47 -3 11 2 4 12 -15 10 -19 21 -36 26 -38z m-83 -76 c-13 -41 -3 -71 35 -97
17 -12 26 -19 20 -17 -76 32 -72 28 -74 87 0 31 -4 72 -7 91 l-6 35 22 -33
c18 -29 19 -39 10 -66z m220 43 c-11 -24 -20 -52 -20 -61 0 -21 -15 -24 -26
-6 -4 6 -2 14 4 16 7 2 22 26 33 53 12 27 23 48 26 46 2 -2 -6 -24 -17 -48z
m25 -109 c3 -5 2 -10 -4 -10 -5 0 -13 5 -16 10 -3 6 -2 10 4 10 5 0 13 -4 16
-10z m95 2 c0 -13 -12 -22 -22 -16 -10 6 -1 24 13 24 5 0 9 -4 9 -8z m-33 -79
c-3 -3 -10 -2 -16 2 -7 4 -7 10 2 20 10 11 13 11 15 -2 2 -8 1 -17 -1 -20z
m-196 4 c-8 -8 -16 -7 -27 5 -14 14 -14 15 11 10 19 -3 23 -8 16 -15z"/>
<path d="M5418 3863 c23 -2 61 -2 85 0 23 2 4 4 -43 4 -47 0 -66 -2 -42 -4z"/>
<path d="M9200 3561 c0 -6 5 -13 10 -16 6 -3 10 1 10 9 0 9 -4 16 -10 16 -5 0
-10 -4 -10 -9z"/>
</g>
</svg>
